<?xml version="1.0" encoding="utf-8"?>
<!-- Generator: Adobe Illustrator 22.0.0, SVG Export Plug-In . SVG Version: 6.00 Build 0)  -->
<svg version="1.1" id="Layer_1" xmlns="http://www.w3.org/2000/svg" xmlns:xlink="http://www.w3.org/1999/xlink" x="0px" y="0px"
	 viewBox="0 0 1366 768" style="enable-background:new 0 0 1366 768;" xml:space="preserve">
<style type="text/css">
	.st0{fill:#E1E1E1;}
	.st1{fill:#E5E5E5;}
	.st2{fill:#C4523C;}
	.st3{fill:#CE5D04;}
	.st4{clip-path:url(#SVGID_3_);}
	.st5{fill:#FFFFFF;}
	.st6{fill:none;}
	.st7{fill:#89D2F6;}
	.st8{fill:#1D1D1B;}
	.st9{fill:#A40F0B;}
	.st10{fill:#9E0601;}
	.st11{fill:#C53011;}
	.st12{fill:#ED9B7C;}
	.st13{fill:#F5BC00;}
	.st14{fill:none;stroke:#000000;stroke-width:2;stroke-miterlimit:10;}
	.st15{fill:#95A5D4;}
	.st16{fill:#4FAE32;}
	.st17{fill:#E30613;}
	.st18{fill:#FFD300;}
</style>
<rect x="-18" y="-12" class="st0" width="1404" height="808"/>
<rect x="-1813.4" y="-11.9" class="st1" width="1403.9" height="778.5"/>
<g>
	<path class="st2" d="M873.9-833.2h38.2c19.9,0,34.3,7.8,34.3,29.3c0,19.5-12.6,28.5-30.6,28.5h-19.1v29h-22.7V-833.2z M909.4-793
		c7.8,0,15-0.6,15-10.7c0-8.4-5.2-11-13.2-11h-14.6v21.7H909.4z"/>
</g>
<g>
	<path class="st2" d="M1218.4-744.3c-26.8,0-43.5-19-43.5-45.5c0-25.7,17.2-45.5,43.3-45.5c25.9,0,42.6,17.7,42.6,45.6
		C1260.7-764.2,1244.7-744.3,1218.4-744.3z M1217.9-816.9c-12.2,0-19.9,10.4-19.9,26.8c0,17,7.4,27.1,20,27.1
		c12.3,0,19.5-10.1,19.5-27.4C1237.5-806.9,1230.1-816.9,1217.9-816.9z"/>
</g>
<g>
	<path class="st2" d="M1356.3-746.4h-22.8v-35.9h-29.4v35.9h-22.8v-86.8h22.8v31h29.4v-31h22.8V-746.4z"/>
</g>
<g>
	<path class="st2" d="M1427.4-813.9v67.6h-22.9v-67.6H1427.4z"/>
</g>
<g>
	<path class="st2" d="M1552.5-746.4h-22.1l1.6-57.8l-29.6,57.8h-24.9v-86.8h22.1l-0.9,57.8l29.6-57.8h24.1V-746.4z"/>
</g>
<g>
	<path class="st2" d="M956.2-668.6h-47v15h42.9v17.6h-42.9v17h48.1v19h-70.6v-86.8h69.5V-668.6z"/>
</g>
<g>
	<path class="st2" d="M977.7-686.9h38.2c19.9,0,34.3,7.8,34.3,29.3c0,19.5-12.6,28.5-30.6,28.5h-19.1v29h-22.7V-686.9z
		 M1013.2-646.6c7.8,0,15-0.6,15-10.7c0-8.4-5.2-11-13.2-11h-14.6v21.7H1013.2z"/>
</g>
<g>
	<path class="st2" d="M1350.5-600h-22.8v-67.6h-29.4v67.6h-22.8v-86.8h75V-600z"/>
</g>
<g>
	<path class="st2" d="M1416.2-597.9c-26.8,0-43.5-19-43.5-45.5c0-25.7,17.2-45.5,43.3-45.5c25.9,0,42.6,17.7,42.6,45.6
		C1458.5-617.8,1442.5-597.9,1416.2-597.9z M1415.7-670.5c-12.2,0-19.9,10.4-19.9,26.8c0,17,7.4,27.1,20,27.1
		c12.3,0,19.5-10.1,19.5-27.4C1435.3-660.5,1427.9-670.5,1415.7-670.5z"/>
</g>
<g>
	<path class="st2" d="M1632.1-600v-32.1h-8.1l-22.9,32.1h-28.8l27-33.2c-11.5-2.9-19.9-12.2-19.9-26.1c0-18.5,13.9-27.6,29.9-27.6
		h45.4v86.8H1632.1z M1632.1-669.3h-16.6c-9.4,0-13.9,3.3-13.9,10.1c0,9.1,6.2,10.7,13.7,10.7h16.8V-669.3z"/>
</g>
<rect x="203.8" y="-423.6" class="st6" width="328.8" height="120.1"/>
<text transform="matrix(1 0 0 1 243.3131 -389.3904)"><tspan x="0" y="0" class="st3" style="font-family:'Helvetica-8-Heavy'; font-size:48px;">Ремонти </tspan><tspan x="-32" y="57.6" class="st3" style="font-family:'Helvetica-8-Heavy'; font-size:48px;">Тернополя</tspan></text>
<g>
	<path class="st3" d="M256.4-416.5h48c25,0,43.1,9.8,43.1,36.8c0,24.5-15.8,35.9-38.5,35.9h-24.1v36.5h-28.5V-416.5z M301-366
		c9.8,0,18.8-0.8,18.8-13.5c0-10.6-6.6-13.8-16.5-13.8h-18.4v27.3H301z"/>
	<path class="st3" d="M452.5-393.6h-59v18.9h53.9v22.1h-53.9v21.3h60.4v23.9h-88.7v-109.1h87.3V-393.6z"/>
	<path class="st3" d="M474.1-416.5h41.4l19.9,75.7l20.4-75.7h40.3v109.1h-27l1.4-83.2l-24.4,83.2h-21.9L500-390.5l0.9,83.1h-26.8
		V-416.5z"/>
	<path class="st3" d="M670.3-304.8c-33.7,0-54.7-23.9-54.7-57.2c0-32.3,21.6-57.2,54.4-57.2c32.5,0,53.5,22.2,53.5,57.3
		C723.5-329.8,703.4-304.8,670.3-304.8z M669.7-396c-15.3,0-25,13-25,33.7c0,21.3,9.3,34,25.1,34c15.5,0,24.5-12.7,24.5-34.5
		C694.3-383.4,685-396,669.7-396z"/>
	<path class="st3" d="M836.8-307.4h-28.7v-45.1h-36.9v45.1h-28.7v-109.1h28.7v38.9h36.9v-38.9h28.7V-307.4z"/>
	<path class="st3" d="M946.7-392.3h-32.3v84.9h-28.8v-84.9h-32.3v-24.2h93.5V-392.3z"/>
	<path class="st3" d="M1057.3-307.4h-27.7l2-72.6l-37.2,72.6h-31.3v-109.1h27.7l-1.1,72.6l37.2-72.6h30.3V-307.4z"/>
	<path class="st3" d="M238.3-208.5H206v84.9h-28.8v-84.9h-32.3v-24.2h93.5V-208.5z"/>
	<path class="st3" d="M342.2-209.7h-59v18.9h53.9v22.1h-53.9v21.3h60.4v23.9h-88.7v-109.1h87.3V-209.7z"/>
	<path class="st3" d="M363.7-232.7h48c25,0,43.1,9.8,43.1,36.8c0,24.5-15.8,35.9-38.5,35.9h-24.1v36.5h-28.5V-232.7z M408.2-182.1
		c9.8,0,18.8-0.8,18.8-13.5c0-10.6-6.6-13.8-16.5-13.8h-18.4v27.3H408.2z"/>
	<path class="st3" d="M566.5-123.6h-28.7v-45.1H501v45.1h-28.7v-109.1H501v38.9h36.9v-38.9h28.7V-123.6z"/>
	<path class="st3" d="M640.4-121c-33.7,0-54.7-23.9-54.7-57.2c0-32.3,21.6-57.2,54.4-57.2c32.5,0,53.5,22.2,53.5,57.3
		C693.6-145.9,673.5-121,640.4-121z M639.8-212.1c-15.3,0-25,13-25,33.7c0,21.3,9.3,34,25.1,34c15.5,0,24.5-12.7,24.5-34.5
		C664.5-199.6,655.1-212.1,639.8-212.1z"/>
	<path class="st3" d="M807-123.6h-28.7v-84.9h-36.9v84.9h-28.7v-109.1H807V-123.6z"/>
	<path class="st3" d="M880.8-121c-33.7,0-54.7-23.9-54.7-57.2c0-32.3,21.6-57.2,54.4-57.2c32.5,0,53.5,22.2,53.5,57.3
		C934-145.9,913.9-121,880.8-121z M880.2-212.1c-15.3,0-25,13-25,33.7c0,21.3,9.3,34,25.1,34c15.5,0,24.5-12.7,24.5-34.5
		C904.9-199.6,895.5-212.1,880.2-212.1z"/>
	<path class="st3" d="M1044.6-123.6H1016v-84.9h-24.2l-1.4,42.4c-1.1,30.8-14.7,44.6-33.4,44.6c-4.3,0-11.8-0.9-15-2v-22.8
		c1.8,0.8,5.4,1.4,8.4,1.4c6.4,0,11.6-2.8,12.3-25.1l1.8-62.7h80.1V-123.6z"/>
	<path class="st3" d="M1133.6-123.6v-40.3h-10.1l-28.8,40.3h-36.2l33.9-41.7c-14.4-3.7-25-15.3-25-32.8c0-23.3,17.5-34.6,37.5-34.6
		h57v109.1H1133.6z M1133.6-210.6h-20.8c-11.8,0-17.5,4.1-17.5,12.7c0,11.5,7.8,13.5,17.2,13.5h21.1V-210.6z"/>
</g>
<g>
	<g>
		<defs>
			<rect id="SVGID_6_" x="864.6" y="-438.5" width="43" height="44.9"/>
		</defs>
		<clipPath id="SVGID_3_">
			<use xlink:href="#SVGID_6_"  style="overflow:visible;"/>
		</clipPath>
		<path class="st4" d="M865.4-397.6l5.3,3.7c0.7,0.5,1.5,0.2,2.1-0.7l9-14l10.8-0.2l4.1-5.9l-20.9-14.7l-4.1,5.9l3.6,10.1
			l-10.3,13.4C864.3-399.1,864.7-398.1,865.4-397.6L865.4-397.6z M868.7-399.6c0.5-0.7,1.4-0.8,2.1-0.4c0.7,0.5,0.8,1.4,0.4,2.1
			c-0.5,0.7-1.4,0.8-2.1,0.4C868.4-398,868.2-399,868.7-399.6L868.7-399.6z M868.7-399.6"/>
		<path class="st4" d="M882.2-438.5l-5.5,7.9l21,14.7l1.4-3.2c-0.3-1.4-0.8-3-1.7-3.3l-0.4-0.1c-1.7-0.5-3.7-1.1-4.2-2.9
			c-0.2-0.7-1-1.1-2.1-1.6c-0.1,0-0.2-0.1-0.3-0.2l-1.1,1l0.6-1.3c-1-0.5-2-1.1-3-2.1c-0.8-0.8-1.2-1.6-1-2.5
			c0.2-1.1,1.5-2.4,1.9-2.6l-1.3-0.8l-3.7,3.6l2-4.8L882.2-438.5z M882.2-438.5"/>
	</g>
	<path d="M905.3-421.2c0.2-1.5-0.1-3.3-1-5.3c-0.5-1.2-2.9-2.3-4.8-2.5c-1.8-0.2-3.9-0.9-4.3-2.1c-0.1-0.4-0.7-2-2.7-3.3
		c-0.5-0.3-0.9-0.4-1.3-0.4c-0.8,0-1.3,0.5-1.9,1l-0.2,0.1l-0.2,0.1c0,0-1.3,0.6-1.5,1.6c-0.1,0.5,0.2,1.1,0.8,1.8
		c0.9,0.9,1.9,1.5,2.8,1.9c0.3,0.1,0.5,0.3,0.8,0.4c0,0,0,0,0.1,0c1.2,0.6,2.3,1.1,2.5,2.1c0.3,1.3,2.1,1.9,3.6,2.3l0.4,0.1
		c1.1,0.3,1.7,1.8,2,3.2c0.1,0.5,0.2,1,0.3,1.5c0.1,0.5,0.2,0.9,0.3,1.1c0.3,0.9-0.1,1.9-0.5,3c-0.2,0.6-0.5,1.3-0.6,1.9
		c-0.1,0.8,0.1,1.7,0.6,2.3c0.5,0.6,1.2,0.9,2.2,0.9c1.5,0,2.2-1,2.2-3.1c0-0.8-0.5-2.1-1-3.3c-0.2-0.5-0.4-0.9-0.5-1.3
		c-0.3-1,0.3-1.6,0.8-2.2C904.7-419.9,905.2-420.4,905.3-421.2L905.3-421.2z M905.3-421.2"/>
	<path d="M905.7-397.4c-1.1-0.3-2.1-0.5-3.2-0.5c-1.8,0-3.1,0.5-3.1,0.5c-0.8,0.3-1.4,0.7-1.4,1.1c0,0.4,0.5,0.8,1.3,1
		c0.7,0.2,1.8,0.3,3.1,0.3c1.4,0,2.7-0.1,3.3-0.3c0.8-0.2,1.4-0.7,1.4-1.1C907.1-396.5,907-397,905.7-397.4L905.7-397.4z
		 M905.7-397.4"/>
</g>
<g>
	<path d="M1208.8-321.7v-2.6c0-1.8-1-2.8-2.8-2.8h-17.6c-2.4,0-3.6,1.1-3.6,2.8v3.4c0,1.8,1.2,2.6,3.6,2.6h17.6
		C1207.8-318.3,1208.8-319.5,1208.8-321.7L1208.8-321.7z M1205.6-321.5H1188v-2.4h17.6V-321.5z M1205.6-321.5"/>
	<path d="M1195.2-345.5v7.7l1,2.7h-1.7l-16.7-23.3l-3.7,2.2l1.1,2v10.3h-1.2l0.8,5.6h0.4v1.7c-0.7,0.3-1.5,1-1.5,2.3
		c0,0.8,0.3,1.5,0.8,1.9l-4.3,3.7h1.2l3.8-3.3c0.3,0.1,0.7,0.2,1.1,0.2c0.4,0,0.7-0.1,1.1-0.3l4.2,3.4h1.3l0,0l-4.8-3.9
		c0.3-0.4,0.5-0.9,0.5-1.6c0-0.4-0.4-0.8-0.8-0.8c-0.4,0-0.8,0.4-0.8,0.8c0,0.3-0.1,0.5-0.2,0.6l-0.2-0.2c-0.2-0.1-0.4-0.1-0.5,0
		l-0.3,0.3c-0.3-0.1-0.5-0.4-0.5-0.8c0-0.7,0.7-0.9,0.9-0.9c0.4-0.1,0.7-0.4,0.7-0.8v-2.3h0.9l1.1-5.6h-1.2v-5.8l9.6,18.5v0.9h3.2
		v1.6h12v-1.6h4.8v-15.2H1195.2z M1188.3-341.4L1188.3-341.4l-3.3,2.1l1.7-4.3L1188.3-341.4z M1176.8-343.9h-0.8v-8.8l0.8,1.5
		V-343.9z M1177.5-352.1l-1.4-2.6l2.2-1.4L1177.5-352.1z M1179.4-354.5l1.5,2.7l-2.5,1.6L1179.4-354.5z M1179.6-348.7l2.3-1.5
		l-0.9,4.2L1179.6-348.7z M1182.9-348.9l1.7,2.5l-2.6,1.7L1182.9-348.9z M1182.7-342.8l2.9-2l-1.6,4.4L1182.7-342.8z M1187-335.2
		l-1.4-2.5l3.5-2.5L1187-335.2z M1188-333.4l2.4-5.1l1.9,2.6L1188-333.4z M1204-337.5h-5.6v-4.8h5.6V-337.5z M1204-337.5"/>
	<path d="M1170.4-323.9h-0.8v1.6h12.8v-1.6h-1.6v-2.4h1.6v-1.6h-12.8v1.6h1.6v2.4H1170.4z M1170.4-323.9"/>
</g>
<path class="st2" d="M1466-841.9h-5.4v-5.4h5.4v-5.4h-30.2l-16.2-14.1c0.1-0.2,0.2-0.5,0.3-0.8c1.2-3.1,1.1-5.8,3.4-6
	c2.7-0.2,2.5-4-1.3-3.9c-1.4,0-3,0.6-4.8,3.2c-0.7,1-1.2,2.4-2.1,3.5l-1.8-1.6c-0.7-0.6-1.7-0.6-2.4,0l-2.5,2.2c-1.4-1.3-2-3.5-2-6
	c0-2.8,1.5-6.1,4.3-6.1c2.8,0,4.7,0.6,4.7,0.6v-12.7h-1.8v-45.1h-3.6v45.1h-1.8v8.4c-5.4,0.3-7.4,4.5-7.4,10.5
	c0,3.5,0.6,7.1,2.8,9.5l-15.1,13.2h-23.6v5.4h3.6v5.4h-3.6v5.4H1466V-841.9z M1406.7-863.8c1.2,0.5,2.7,0.8,4.4,0.8
	c2.9,0,4.8-0.4,6.1-1.2l13.1,11.4H1394L1406.7-863.8z M1406.7-863.8"/>
<g>
	<path d="M1090.9-346.1c0.4-0.4,0.6-0.9,0.6-1.7c0-0.4-0.4-0.8-0.8-0.8c-0.4,0-0.8,0.4-0.8,0.8c0,0.3-0.1,0.5-0.2,0.6l-0.2-0.2
		c-0.2-0.1-0.4-0.1-0.5,0l-0.3,0.3c-0.3-0.1-0.5-0.4-0.5-0.8c0-0.7,0.7-0.9,0.9-0.9c0.4-0.1,0.7-0.4,0.7-0.8v-2.3h0.9l1.1-5.6h-1.2
		v-4h-0.8v4h-0.8v-4h-0.8v4h-1.2l0.8,5.6h0.4v1.7c-0.7,0.3-1.5,1-1.5,2.3c0,0.9,0.4,1.5,0.9,1.9l-14,13.3h-6.9v16.8h47.2v-16.8h-8
		L1090.9-346.1z M1088.3-345.5c0.3,0.1,0.7,0.2,1,0.2c0.3,0,0.7-0.1,1-0.2l14.3,12.9h-29.9L1088.3-345.5z M1069-330.3h0.8v12h-0.8
		V-330.3z M1071.4-330.3h1.6v12h-1.6V-330.3z M1074.6-330.3h1.6v12h-1.6V-330.3z M1077.8-330.3h1.6v12h-1.6V-330.3z M1081-330.3h1.6
		v12h-1.6V-330.3z M1084.2-330.3h1.6v12h-1.6V-330.3z M1087.4-330.3h1.6v12h-1.6V-330.3z M1090.6-330.3h1.6v12h-1.6V-330.3z
		 M1093.8-330.3h1.6v12h-1.6V-330.3z M1097-330.3h1.6v12h-1.6V-330.3z M1100.2-330.3h1.6v12h-1.6V-330.3z M1103.4-330.3h1.6v12h-1.6
		V-330.3z M1111.4-318.3h-1.6v-12h1.6V-318.3z M1108.2-318.3h-1.6v-12h1.6V-318.3z M1108.2-318.3"/>
</g>
<g>
	<rect x="1021.6" y="-345.1" width="25.6" height="1.6"/>
	<rect x="1021.6" y="-348.3" width="25.6" height="2.4"/>
	<path d="M1047.2-342.7h-25.6v1.6l8.7,6.2l-0.7,16.8c0,1.1,0.9,1.8,1.8,1.8h6.5c0.9,0,1.3-0.7,1.3-1.8l-0.7-16.7l8.7-6.4V-342.7z
		 M1034.4-318.4c-0.8,0-1.5-0.7-1.5-1.5c0-0.8,0.7-1.5,1.5-1.5c0.8,0,1.5,0.7,1.5,1.5C1035.9-319,1035.2-318.4,1034.4-318.4
		L1034.4-318.4z M1034.4-318.4"/>
	<path d="M1047.2-359.5h-10.9l-1.1,5.5l-0.9-5.5h-7.3l-0.9,5.1l-1.1-5.1h-3.2v9.6h25.6V-359.5z M1047.2-359.5"/>
</g>
<path class="st2" d="M1275.4-454.6l5.2-3.6l1.3-0.9l-18.7-27.5l48.4-33c2.2-1.5,3.4-3.3,3.7-5.4c0.4-3.1-1.6-5.6-1.6-5.6l-15.7-23.1
	c-0.1-0.2-1.9-4.4-6.2-4.4c-1.6,0-3.3,0.6-5.1,1.8l-5.7,3.8c0.4,0.4,0.7,0.8,1.1,1.2c1.3,1.6,2.6,3.3,3.8,5c0.3,0.4,0.6,0.9,0.9,1.3
	l4-2.7l14.2,20.9l-48.4,33c-2.1,1.4-3.3,3.2-3.6,5.2c-0.5,3.2,1.5,5.8,1.5,5.8l19.6,28.8L1275.4-454.6z M1275.4-454.6"/>
<path class="st2" d="M1191.3-479.6c-0.3-0.4-0.6-0.8-0.9-1.3c-1.2-1.8-2.3-3.7-3.2-5.5c-0.2-0.5-0.4-1-0.7-1.5l-8.4,5.7l5.3,7.9
	L1191.3-479.6z M1191.3-479.6"/>
<path class="st2" d="M1278.1-444.9l26.1,38.3c0,0,3.6,3.5,8.7-0.1c5.1-3.7,2-7,2-7l-27.4-38.6l5.2-3.6l-2.8-4.6l-7.5,5.1l-5.2,3.6
	l-7.8,5.3l3.6,5.2L1278.1-444.9z M1278.1-444.9"/>
<path class="st2" d="M1280.6-542.4L1280.6-542.4c-1.2-1.8-2.5-3.5-3.9-5c-3-3.5-6.1-6.4-7.9-8l-80,54.5c0.5,2.3,1.6,6.4,3.7,10.9
	c0.9,1.8,1.9,3.7,3.1,5.5c4.3,6.3,10.1,10.6,12.8,12.3l80-54.5C1287.2-530,1284.6-536.6,1280.6-542.4L1280.6-542.4z M1280.6-542.4"
	/>
<g>
	<rect x="815.1" y="-646.9" class="st2" width="20.9" height="48.7"/>
</g>
<g>
	<rect x="769.9" y="-686.9" class="st2" width="23.9" height="19.1"/>
</g>
<g>
	<rect x="855.9" y="-686.9" class="st2" width="23.9" height="19.1"/>
</g>
<g>
	<path class="st2" d="M848.2-686.9h-16.4c-16.7,0-16.7,15.7-16.7,15.7v15.7h-3.5v5.2h27.9v-5.2H836v-6.5c0,0-0.6-5.7,5.2-5.7h7v3.5
		h5.2v-26.1h-5.2V-686.9z M848.2-686.9"/>
</g>
<g>
	<path class="st2" d="M801.6-690.4h-5.2v26.1h5.2v-3.5h7c5.8,0,5.2,5.7,5.2,5.7v6.5h-3.5v5.2h27.9v-5.2h-3.5v-15.7
		c0,0,0-15.7-16.7-15.7h-16.4V-690.4z M801.6-686.9"/>
</g>
<g>
	<path class="st2" d="M1653.5-739.6l-10.7,21.6l-3.6-1.8l10.7-21.6L1653.5-739.6z M1666.8-756.9l-1,1.8c-1.2,2.1-3.5,6.4-6.8,7.3
		l-3.1,6.4l-6-3l3.1-6.3c-1.5-3.4,0.7-8.4,1.6-10.6l0.6-1.5L1666.8-756.9z M1661.7-753.5l-6.1-3c-0.8,2.5-0.9,5,0.9,5.8
		C1658.5-749.7,1660.2-751.1,1661.7-753.5L1661.7-753.5z M1629.2-697.1c1.7-0.2,5.7-0.3,8.9,2.1c0.6,0.4,1.1,1,1.6,1.5l2.2-4.4l1-2
		l3.3-6.7c0.5-0.9-1.7-2.7-5.2-4.7l1.8-3.7l-6-3l-1.8,3.7c-1.9-0.7-4.5-1.6-5.9-1.6c-0.5,0-0.8,0.1-0.9,0.3l-4.5,9.1l-2.1,4.2
		l-0.1,0.2c-0.1,0.3-0.1,0.7-0.1,1.1C1624-700.7,1626.6-699.7,1629.2-697.1L1629.2-697.1z M1652-688.7c0-2.1-2-2.8-3.6-2.8
		c-0.4,0-0.8,0.1-1.2,0.3c0.6-0.9,0.9-1.9,0.9-3.1c0-2.5-1.3-4.4-3-4.9l-3.5,7.1c-0.1,0.2-0.3,0.4-0.5,0.6c0.7,1.5,1.2,3.3,1.3,5.4
		c0.1,0.8-0.5,1.4-1.3,1.5c0,0-0.1,0-0.1,0c-0.7,0-1.3-0.6-1.4-1.3c-0.3-3.3-1.3-5.7-3.3-7.1c-3.1-2.3-7.4-1.5-7.4-1.5l-0.8,0.2
		l-0.5-0.6c-6.8-7.2-13.8-1.1-14.1-0.8c-0.6,0.5-1.5,0.5-2-0.1c-0.5-0.6-0.5-1.5,0.1-2c1.5-1.4,4.2-3,7.3-3.3
		c-0.1-0.6,0-1.2,0.2-1.7l0.7-1.3l1.2-2.5c-0.9,0-0.8,0.1-1.6,0.3c-2.2-2.8-5.6-4.6-9.5-4.6c-6.6,0-12,5.3-12,11.7
		c0,1,0.1,1.9,0.4,2.8c-3.8,1.6-6.3,4.4-6.3,7.6c0,1,0.3,2,0.7,3c-1.7,0.7-2.8,2.1-2.8,3.8c0,2.2,2.1,4,4.7,4.3v0.1h54.3
		c0.2,0.1,0.4,0.1,0.7,0.1c0,0,0,0,0,0c0.3,0,0.6,0.1,0.9,0.1c3.2,0,5.8-2.6,5.8-5.8C1656.5-685.8,1654.6-688.1,1652-688.7
		L1652-688.7z M1652-688.7"/>
</g>
<g>
	<path d="M775.2-334.7h-4.8v14.4h4.8v-3.2h17.6v3.2h4.8v-14.4h-4.8v6.4h-17.6v-1.6V-334.7z M775.2-334.7"/>
	<path d="M771.7-335.5h30.7v-10.4h-36.8v10.4H771.7z M799.4-344.3l-4.3,7.2h-4.4l4.3-7.2H799.4z M788.2-344.3l-4.3,7.2h-4.4l4.3-7.2
		H788.2z M777-344.3l-4.3,7.2h-4.4l4.3-7.2H777z M777-344.3"/>
	<path d="M768.4-348.6c0.4,0.2,0.8,0.4,1.2,0.4h1.6v1.6h3.2v-1.6h1.6c1.3,0,2.4-1.1,2.4-2.4v-2.4c0-0.3-0.1-0.5-0.1-0.8
		c-0.3-0.9-1.2-1.6-2.3-1.6h-6.4c-1.3,0-2.4,1.1-2.4,2.4v2.4C767.2-349.8,767.7-349,768.4-348.6L768.4-348.6z M768.8-353.1
		c0-0.4,0.4-0.8,0.8-0.8h6.4c0.4,0,0.8,0.4,0.8,0.8v2.4c0,0.4-0.4,0.8-0.8,0.8h-6.4c-0.2,0-0.3-0.1-0.4-0.1
		c-0.2-0.1-0.4-0.4-0.4-0.7V-353.1z M768.8-353.1"/>
	<path d="M790.8-348.6c0.4,0.2,0.8,0.4,1.2,0.4h1.6v1.6h3.2v-0.7l0-0.9h1.6c1.3,0,2.4-1.1,2.4-2.4v-2.4c0-0.3-0.1-0.5-0.1-0.8
		c-0.3-0.9-1.2-1.6-2.3-1.6H792c-1.3,0-2.4,1.1-2.4,2.4v2.4C789.6-349.8,790.1-349,790.8-348.6L790.8-348.6z M791.2-353.1
		c0-0.4,0.4-0.8,0.8-0.8h6.4c0.4,0,0.8,0.4,0.8,0.8v2.4c0,0.4-0.4,0.8-0.8,0.8H792c-0.2,0-0.3-0.1-0.4-0.1c-0.2-0.1-0.4-0.4-0.4-0.7
		V-353.1z M791.2-353.1"/>
</g>
<path d="M705.2-287.7h-4.8v14.4h4.8v-3.2h17.6v3.2h4.8v-14.4h-4.8v6.4h-17.6v-1.6V-287.7z M705.2-287.7"/>
<path d="M701.7-288.5h30.7v-10.4h-36.8v10.4H701.7z M729.4-297.3l-4.3,7.2h-4.4l4.3-7.2H729.4z M718.2-297.3l-4.3,7.2h-4.4l4.3-7.2
	H718.2z M707-297.3l-4.3,7.2h-4.4l4.3-7.2H707z M707-297.3"/>
<g>
	<path class="st2" d="M1517.4-718.6h-8.5l-14.3,40.6h37.1L1517.4-718.6z M1517.4-718.6"/>
	<path class="st2" d="M1536.5-664.5h-46.7l-6.7,19h60L1536.5-664.5z M1536.5-664.5"/>
	<path class="st2" d="M1566.8-610.3h-11.2l-7.7-21.8l-69.6,0.1l-7.6,21.7h-12.2v10.8h108.3V-610.3z M1566.8-610.3"/>
</g>
<g>
	<path d="M600.7-336.8l-3,4.7l-2-0.8l-7,12.8h8.3l3.6-4.8h3.1l3.3,4.8h2.8l-6.4-16L600.7-336.8z M600.7-336.8"/>
	<path d="M603.1-324.1h-2.3l-3,4h8.1L603.1-324.1z M603.1-324.1"/>
	<path d="M567.6-327.7l-2.4,7.7h3.3l2.6-7.6l0.8-5.9h2.5l2.3,6.2l-1.4,7.4h3.2l1.6-8.4l-1.6-4.4l-0.6-2l8.7,4.9l-1.6,2.8l3.8,2.2
		l4-6.9l-3.8-2.2l-1.6,2.7l-10.1-5.7l-0.5-1.9l1-4l0.4,3.7l0.7,1.8l2.7,1.6l-1.1-4l-0.9-7.6l-2.8-0.1l-0.5-1.4c1.9-0.4,3.3-2,3.4-4
		l-8.4-1.1c-0.1,0.3-0.1,0.6-0.1,0.9c0,1.5,0.8,2.8,1.9,3.6l-0.1,0l-1.7,1.4l-2.2-0.2l-4.7,4.1v6.3l3.8,0.9L567.6-327.7z
		 M566.8-340.4v-1.9l1.6-1.5v3.7L566.8-340.4z M566.8-340.4"/>
	<path d="M579.6-353.9l1.3,0.2c0.2-3.8-1.5-6.3-4.5-6.7c-0.2,0-0.5,0-0.7,0c-2.7,0-4.6,1.9-5.3,5.3l1.1,0.1L579.6-353.9z
		 M579.6-353.9"/>
</g>
<polygon class="st2" points="1287,-779.6 1364.9,-779.6 1364.9,-806 1271.4,-806 1271.4,-779.6 "/>
<polygon class="st5" points="1357.2,-801.9 1346.3,-783.6 1335.1,-783.6 1346,-801.9 "/>
<polygon class="st5" points="1328.8,-801.9 1317.9,-783.6 1306.7,-783.6 1317.6,-801.9 "/>
<polygon class="st5" points="1300.3,-801.9 1289.4,-783.6 1278.2,-783.6 1289.1,-801.9 "/>
<path d="M1300.3-801.9"/>
<g>
	<rect x="804" y="-686.9" class="st2" width="40.7" height="19.2"/>
</g>
<polygon class="st6" points="1088,-655.9 1081.3,-666.4 1081.3,-655.9 "/>
<g>
	<polygon class="st2" points="1081.3,-686.9 1068.3,-686.9 1081.3,-666.4 	"/>
</g>
<g>
	<rect x="60.9" y="-333.3" class="st7" width="26" height="37"/>
</g>
<polygon class="st6" points="985.3,-765.5 1018.1,-765.5 1007.3,-782.5 985.3,-782.5 "/>
<polygon class="st6" points="985.3,-800.1 996.1,-800.1 986.6,-815.1 985.3,-815.1 "/>
<path class="st6" d="M1230.8-644c0-16.5-7.4-26.5-19.6-26.5c-7.7,0-13.6,4.2-16.9,11.4l25.8,40.4
	C1226.9-622.5,1230.8-631.3,1230.8-644z"/>
<polygon class="st6" points="1124,-769.3 1135.6,-751.1 1136.7,-812.6 "/>
<path class="st2" d="M1193.4-657.3c-1.4,3.8-2.2,8.4-2.2,13.6c0,17,7.4,27.1,20,27.1c2.6,0,5-0.5,7.2-1.4c0.5-0.2,1-0.5,1.5-0.7
	l-25.8-40.4C1193.9-658.5,1193.7-657.9,1193.4-657.3z"/>
<polygon class="st2" points="1120.7,-635.9 1110.8,-635.9 1100.8,-635.9 1120.7,-604.6 1120.7,-620.3 "/>
<polygon class="st2" points="1112.6,-787.2 1099.6,-807.6 1108.7,-773 "/>
<path class="st2" d="M1248.5-572.3l-17.9-29.8c-0.5,0.2-1,0.5-1.5,0.7c-5.1,2.2-11,3.4-17.5,3.4c-26.8,0-43.5-19-43.5-45.5
	c0-13.4,4.7-25.2,12.9-33.4c0.4-0.4,0.8-0.8,1.2-1.2l-43.6-68.4l0,0h-3.1l0.1-4.7v0l-11.6-18.3v0l-6.7,23h-17.4l-19.3-66.1l0.7,66.1
	h-21.3v-86.8h23.3l-43.4-68.2c-1.1-1.8-3.9-2.1-6.1-0.7c-2.2,1.4-3.1,4-1.9,5.8l0.3,0.5c-0.9,0-1.9,0.2-2.9,0.8
	c-2.2,1.4-3.1,4-1.9,5.8l2.8,4.3c-1.2-1.8-3.9-2.1-6.1-0.7c-2.2,1.4-3.1,4-1.9,5.8l-2.8-4.3c-1.1-1.8-3.9-2.1-6.1-0.7
	c-2.2,1.4-3.1,4-1.9,5.8l1.4,2.2c-1.1-1.8-3.9-2.1-6.1-0.7c-2.2,1.4-3.1,4-1.9,5.8l1.4,2.2c-1.1-1.8-3.9-2.1-6.1-0.7
	c-2.2,1.4-3.1,4-1.9,5.8l-2.8-4.3c-1.1-1.8-3.9-2.1-6.1-0.7c-2.2,1.4-3.1,4-1.9,5.8l2.8,4.3c-1.2-1.8-3.9-2.1-6.1-0.7
	c-1,0.6-1.7,1.5-2.1,2.4l-2.6-4.1c-1.1-1.8-3.9-2.1-6.1-0.7c-2.2,1.4-3.1,4-1.9,5.8l1.4,2.2c-1.1-1.8-3.9-2.1-6.1-0.7
	c-2.2,1.4-3.1,4-1.9,5.8l9.9,15.6h57.3v18.3h-45.7l9.6,15h32.1v17.6h-20.9l10.8,17h15.2v19h-3.1l38.2,60v-0.3h9.8h13v20.4v10.6h6.7
	h22.7v-31h22.8v86.8h-9.9h-10l50.1,80.2c1.1,1.8,3.9,2.1,6.1,0.7c2.2-1.4,3.1-4,1.9-5.8l-1.4-2.2c1.1,1.8,3.9,2.1,6.1,0.7
	c1-0.6,1.7-1.5,2.1-2.4l2.6,4.1c1.1,1.8,3.9,2.1,6.1,0.7c2.2-1.4,3.1-4,1.9-5.8l-2.8-4.3c1.1,1.8,3.9,2.1,6.1,0.7
	c2.2-1.4,3.1-4,1.9-5.8l2.8,4.3c1.1,1.8,3.9,2.1,6.1,0.7c2.2-1.4,3.1-4,1.9-5.8l-1.4-2.2c1.1,1.8,3.9,2.1,6.1,0.7
	c2.2-1.4,3.1-4,1.9-5.8l-1.4-2.2c1.1,1.8,3.9,2.1,6.1,0.7c2.2-1.4,3.1-4,1.9-5.8l2.8,4.3c0.8,1.3,2.5,1.8,4.2,1.4
	c0.6-0.1,1.3-0.4,1.9-0.8c0.7-0.4,1.3-1,1.7-1.7c0.9-1.3,1-2.9,0.2-4.1l-2.8-4.3c1.1,1.8,3.9,2.1,6.1,0.7c2.2-1.4,3.1-4,1.9-5.8
	l-0.3-0.5c0.9,0,1.9-0.2,2.8-0.8c1.1-0.7,1.8-1.6,2.2-2.6C1249.2-570.2,1249.1-571.4,1248.5-572.3z"/>
<path class="st2" d="M-1693.5,260.8l-0.1,0.3l-20.9-68l-6.6-21.6l-5.9-19.2l-6.1-19.9l-5.2-17l-6.4-20.7l-5.4-17.6
	c-0.6-2,0.9-4.3,3.4-5.1c2.5-0.8,5,0.2,5.7,2.3l-0.8-2.5c-0.6-2,0.9-4.3,3.4-5.1c2.5-0.8,5,0.2,5.7,2.3l0.7,2.1
	c0.3,1.1,1.6,1.6,2.6,1.1c0.3-0.1,0.6-0.3,0.9-0.3c0.8-0.2,1.5-0.3,2.2-0.2c1.3,0.1,2.3-1.1,1.9-2.4l0,0c-0.6-2,0.9-4.3,3.4-5.1
	c2.5-0.8,5,0.2,5.7,2.3l0,0c0.4,1.3,2,1.7,3,0.8c0.5-0.4,1.2-0.8,1.9-1c2.5-0.8,5,0.2,5.7,2.3l-0.8-2.5c-0.6-2,0.9-4.3,3.4-5.1
	c2.5-0.8,5,0.2,5.7,2.3l-0.8-2.5c-0.6-2,0.9-4.3,3.4-5.1c2.5-0.8,5,0.2,5.7,2.3v0c0.4,1.3,2,1.7,3,0.8c0.5-0.4,1.2-0.8,1.9-1
	c0.7-0.2,1.5-0.3,2.1-0.2c1.3,0.1,2.4-1.1,2-2.4l0,0c-0.6-2,0.9-4.3,3.4-5.1c1-0.3,2.1-0.3,3,0l-0.2-0.6c-0.6-2,0.9-4.3,3.4-5.1
	c2.5-0.8,5,0.2,5.7,2.3l23.8,77.2l22.3,72.4v0l6.4,20.7l0,0l1.6,5.3l0,0l23.9,77.5c-0.5,0.3,113.8,373.6,113.8,373.6
	c0.3,1.1,0.1,2.2-0.6,3.1c-0.6,0.9-1.6,1.6-2.8,2c-1,0.3-2,0.3-3,0l0.2,0.6c0.6,2-0.9,4.3-3.4,5.1c-2.5,0.8-5-0.2-5.7-2.3l1.5,4.9
	c0.4,1.4-0.1,2.9-1.3,3.9c-0.6,0.5-1.3,0.9-2.1,1.2c-0.7,0.2-1.4,0.3-2,0.2c-1.7-0.1-3.2-1-3.7-2.5l-1.5-4.9c0.6,2-0.9,4.3-3.4,5.1
	c-2.5,0.8-5-0.2-5.7-2.3l0.8,2.4c0.6,2-0.9,4.3-3.4,5.1c-2.5,0.8-5-0.2-5.7-2.3l0.8,2.4c0.6,2-0.9,4.3-3.4,5.1
	c-2.5,0.8-5-0.2-5.7-2.3l-1.5-4.9c0.6,2-0.9,4.3-3.4,5.1c-2.5,0.8-5-0.2-5.7-2.3l1.5,4.9c0.6,2-0.9,4.3-3.4,5.1
	c-2.5,0.8-5-0.2-5.7-2.3l-1.5-4.6c-0.6,0.8-1.5,1.4-2.6,1.8c-2.5,0.8-5.1-0.2-5.7-2.3l0.8,2.5c0.6,2-0.9,4.3-3.4,5.1
	c-2.5,0.8-5-0.2-5.7-2.3l-104.9-344.6L-1693.5,260.8z"/>
<path class="st2" d="M-1476.6,282.4l0,0.3l-34.7-62l-11-19.7l-9.8-17.5l-10.2-18.2l-8.7-15.5l-10.6-18.9l-9-16.1
	c-1-1.9,0-4.4,2.2-5.7c2.3-1.3,5-0.8,6,1l-1.3-2.2c-1-1.9,0-4.4,2.2-5.7c2.3-1.3,5-0.8,6,1l1.1,1.9c0.6,1,1.9,1.3,2.8,0.5
	c0.2-0.2,0.5-0.4,0.8-0.5c0.7-0.4,1.4-0.6,2.1-0.7c1.3-0.2,2-1.6,1.4-2.8l0,0c-1-1.9,0-4.4,2.2-5.7c2.3-1.3,5-0.8,6,1l0,0
	c0.7,1.2,2.3,1.2,3.1,0.2c0.4-0.5,1-1,1.6-1.4c2.3-1.3,5-0.8,6,1l-1.3-2.2c-1-1.9-0.1-4.4,2.2-5.7c2.3-1.3,5-0.8,6,1l-1.3-2.2
	c-1-1.9-0.1-4.4,2.2-5.7c2.3-1.3,5-0.8,6,1v0c0.7,1.2,2.3,1.2,3.1,0.2c0.4-0.5,1-1,1.6-1.4c0.7-0.4,1.4-0.6,2.1-0.7
	c1.3-0.2,2.1-1.6,1.5-2.8l0,0c-1.1-1.9-0.1-4.4,2.2-5.7c1-0.5,2-0.7,2.9-0.7l-0.3-0.5c-1-1.9-0.1-4.4,2.2-5.7c2.3-1.3,5-0.8,6,1
	l39.5,70.5l37,66.1v0l10.6,18.9v0l2.7,4.9l0,0l39.6,70.7c-0.4,0.4,189.8,341.4,189.8,341.4c0.6,1,0.5,2.1,0.1,3.2
	c-0.4,1-1.2,1.9-2.3,2.5c-0.9,0.5-1.9,0.7-2.9,0.6l0.3,0.5c1,1.9,0,4.4-2.2,5.7c-2.3,1.3-5,0.8-6-1l2.5,4.5c0.7,1.3,0.5,2.8-0.5,4.1
	c-0.4,0.6-1,1.2-1.8,1.6c-0.6,0.4-1.3,0.5-1.9,0.7c-1.7,0.3-3.3-0.3-4.1-1.7l-2.5-4.5c1.1,1.9,0.1,4.4-2.2,5.7c-2.3,1.3-5,0.8-6-1
	l1.3,2.2c1.1,1.9,0.1,4.4-2.2,5.7c-2.3,1.3-5,0.8-6-1l1.3,2.2c1.1,1.9,0.1,4.4-2.2,5.7c-2.3,1.3-5,0.8-6-1l-2.5-4.5
	c1,1.9,0,4.4-2.2,5.7c-2.3,1.3-5,0.8-6-1l2.5,4.5c1,1.9,0,4.4-2.2,5.7c-2.3,1.3-5,0.8-6-1l-2.4-4.2c-0.5,0.9-1.2,1.7-2.2,2.3
	c-2.3,1.3-5,0.9-6-1l1.3,2.2c1,1.9,0.1,4.4-2.2,5.7c-2.3,1.3-5,0.8-6-1l-174.9-314.9L-1476.6,282.4z"/>
<path class="st2" d="M-1334.2,238.5l0,0.3l-28.7-65l-9.1-20.6l-8.1-18.4l-8.4-19.1l-7.2-16.3l-8.8-19.8l-7.5-16.9
	c-0.9-1.9,0.4-4.4,2.8-5.5c2.4-1.1,5-0.4,5.9,1.6l-1-2.3c-0.9-1.9,0.4-4.4,2.8-5.5c2.4-1.1,5-0.4,5.9,1.6l0.9,2
	c0.5,1,1.7,1.4,2.7,0.8c0.3-0.2,0.5-0.3,0.8-0.4c0.7-0.3,1.5-0.5,2.2-0.5c1.3,0,2.2-1.4,1.6-2.6l0,0c-0.9-1.9,0.4-4.4,2.8-5.5
	c2.4-1.1,5-0.4,5.9,1.6l0,0c0.6,1.2,2.2,1.4,3.1,0.5c0.5-0.5,1.1-0.9,1.8-1.2c2.4-1.1,5-0.4,5.9,1.6l-1-2.3
	c-0.9-1.9,0.4-4.4,2.8-5.5c2.4-1.1,5-0.4,5.9,1.6l-1-2.3c-0.9-1.9,0.4-4.4,2.8-5.5c2.4-1.1,5-0.4,5.9,1.6v0c0.6,1.2,2.2,1.4,3.1,0.5
	c0.5-0.5,1.1-0.9,1.8-1.2c0.7-0.3,1.4-0.5,2.1-0.5c1.4,0,2.3-1.4,1.7-2.6l0,0c-0.9-1.9,0.4-4.4,2.7-5.5c1-0.4,2-0.5,3-0.4l-0.2-0.5
	c-0.9-1.9,0.4-4.4,2.8-5.5c2.4-1.1,5-0.4,5.9,1.6l32.6,73.9l30.6,69.3v0l8.8,19.8v0l2.2,5.1l0,0l32.7,74.1
	c-0.5,0.3,156.7,357.8,156.7,357.8c0.5,1,0.3,2.1-0.2,3.2c-0.5,0.9-1.4,1.8-2.5,2.3c-1,0.4-2,0.5-2.9,0.4l0.2,0.6
	c0.9,1.9-0.4,4.4-2.8,5.5c-2.4,1.1-5,0.4-5.9-1.6l2.1,4.7c0.6,1.3,0.2,2.9-0.9,4c-0.5,0.6-1.1,1.1-1.9,1.4c-0.7,0.3-1.3,0.4-2,0.5
	c-1.7,0.1-3.3-0.6-3.9-2l-2.1-4.7c0.9,1.9-0.4,4.4-2.7,5.5c-2.4,1.1-5,0.4-5.9-1.6l1,2.3c0.9,1.9-0.4,4.4-2.7,5.5
	c-2.4,1.1-5,0.4-5.9-1.6l1,2.3c0.9,1.9-0.4,4.4-2.7,5.5c-2.4,1.1-5,0.4-5.9-1.6l-2.1-4.7c0.9,1.9-0.4,4.4-2.8,5.5
	c-2.4,1.1-5,0.4-5.9-1.6l2.1,4.7c0.9,1.9-0.4,4.4-2.8,5.5c-2.4,1.1-5,0.4-5.9-1.6l-2-4.4c-0.5,0.9-1.4,1.6-2.4,2.1
	c-2.4,1.1-5,0.4-5.9-1.6l1,2.3c0.9,2-0.4,4.4-2.8,5.5c-2.4,1.1-5,0.4-5.9-1.6l-144.4-330L-1334.2,238.5z"/>
<path class="st2" d="M-834.7,259.5l0,0.3l-28.7-65l-9.1-20.6l-8.1-18.4l-8.4-19.1l-7.2-16.3l-8.8-19.8l-7.5-16.9
	c-0.9-1.9,0.4-4.4,2.8-5.5c2.4-1.1,5-0.4,5.9,1.6l-1-2.3c-0.9-1.9,0.4-4.4,2.8-5.5c2.4-1.1,5-0.4,5.9,1.6l0.9,2
	c0.5,1,1.7,1.4,2.7,0.8c0.3-0.2,0.5-0.3,0.8-0.4c0.7-0.3,1.5-0.5,2.2-0.5c1.3,0,2.2-1.4,1.6-2.6l0,0c-0.9-1.9,0.4-4.4,2.8-5.5
	c2.4-1.1,5-0.4,5.9,1.6l0,0c0.6,1.2,2.2,1.4,3.1,0.5c0.5-0.5,1.1-0.9,1.8-1.2c2.4-1.1,5-0.4,5.9,1.6l-1-2.3
	c-0.9-1.9,0.4-4.4,2.8-5.5c2.4-1.1,5-0.4,5.9,1.6l-1-2.3c-0.9-1.9,0.4-4.4,2.8-5.5c2.4-1.1,5-0.4,5.9,1.6v0c0.6,1.2,2.2,1.4,3.1,0.5
	c0.5-0.5,1.1-0.9,1.8-1.2c0.7-0.3,1.4-0.5,2.1-0.5c1.4,0,2.3-1.4,1.7-2.6l0,0c-0.9-1.9,0.4-4.4,2.7-5.5c1-0.4,2-0.5,3-0.4l-0.2-0.5
	c-0.9-1.9,0.4-4.4,2.8-5.5c2.4-1.1,5-0.4,5.9,1.6L-798,117l30.6,69.3v0l8.8,19.8v0l2.2,5.1l0,0l32.7,74.1
	c-0.5,0.3,156.7,357.8,156.7,357.8c0.5,1,0.3,2.1-0.2,3.2c-0.5,0.9-1.4,1.8-2.5,2.3c-1,0.4-2,0.5-2.9,0.4l0.2,0.6
	c0.9,1.9-0.4,4.4-2.8,5.5c-2.4,1.1-5,0.4-5.9-1.6l2.1,4.7c0.6,1.3,0.2,2.9-0.9,4c-0.5,0.6-1.1,1.1-1.9,1.4c-0.7,0.3-1.3,0.4-2,0.5
	c-1.7,0.1-3.3-0.6-3.9-2l-2.1-4.7c0.9,1.9-0.4,4.4-2.7,5.5c-2.4,1.1-5,0.4-5.9-1.6l1,2.3c0.9,1.9-0.4,4.4-2.7,5.5
	c-2.4,1.1-5,0.4-5.9-1.6l1,2.3c0.9,1.9-0.4,4.4-2.7,5.5c-2.4,1.1-5,0.4-5.9-1.6l-2.1-4.7c0.9,1.9-0.4,4.4-2.8,5.5
	c-2.4,1.1-5,0.4-5.9-1.6l2.1,4.7c0.9,1.9-0.4,4.4-2.8,5.5c-2.4,1.1-5,0.4-5.9-1.6l-2-4.4c-0.5,0.9-1.4,1.6-2.4,2.1
	c-2.4,1.1-5,0.4-5.9-1.6l1,2.3c0.9,2-0.4,4.4-2.8,5.5c-2.4,1.1-5,0.4-5.9-1.6l-144.4-330L-834.7,259.5z"/>
<path class="st2" d="M-657.7,318l0,0.3l-28.7-65l-9.1-20.6l-8.1-18.4l-8.4-19.1l-7.2-16.3l-8.8-19.8l-7.5-16.9
	c-0.9-1.9,0.4-4.4,2.8-5.5c2.4-1.1,5-0.4,5.9,1.6l-1-2.3c-0.9-1.9,0.4-4.4,2.8-5.5c2.4-1.1,5-0.4,5.9,1.6l0.9,2
	c0.5,1,1.7,1.4,2.7,0.8c0.3-0.2,0.5-0.3,0.8-0.4c0.7-0.3,1.5-0.5,2.2-0.5c1.3,0,2.2-1.4,1.6-2.6l0,0c-0.9-1.9,0.4-4.4,2.8-5.5
	c2.4-1.1,5-0.4,5.9,1.6l0,0c0.6,1.2,2.2,1.4,3.1,0.5c0.5-0.5,1.1-0.9,1.8-1.2c2.4-1.1,5-0.4,5.9,1.6l-1-2.3
	c-0.9-1.9,0.4-4.4,2.8-5.5c2.4-1.1,5-0.4,5.9,1.6l-1-2.3c-0.9-1.9,0.4-4.4,2.8-5.5c2.4-1.1,5-0.4,5.9,1.6l0,0
	c0.6,1.2,2.2,1.4,3.1,0.5c0.5-0.5,1.1-0.9,1.8-1.2c0.7-0.3,1.4-0.5,2.1-0.5c1.4,0,2.3-1.4,1.7-2.6l0,0c-0.9-1.9,0.4-4.4,2.7-5.5
	c1-0.4,2-0.5,3-0.4l-0.2-0.5c-0.9-1.9,0.4-4.4,2.8-5.5c2.4-1.1,5-0.4,5.9,1.6l32.6,73.9l30.6,69.3v0l8.8,19.8v0l2.2,5.1l0,0
	l32.7,74.1c-0.5,0.3,96.8,219.9,96.8,219.9c0.5,1,0.3,2.1-0.2,3.2c-0.5,0.9-1.4,1.8-2.5,2.3c-1,0.4-2,0.5-2.9,0.4l0.2,0.6
	c0.9,1.9-0.4,4.4-2.8,5.5c-2.4,1.1-5,0.4-5.9-1.6l2.1,4.7c0.6,1.3,0.2,2.9-0.9,4c-0.5,0.6-1.1,1.1-1.9,1.4c-0.7,0.3-1.3,0.4-2,0.5
	c-1.7,0.1-3.3-0.6-3.9-2l-2.1-4.7c0.9,1.9-0.4,4.4-2.7,5.5c-2.4,1.1-5,0.4-5.9-1.6l1,2.3c0.9,1.9-0.4,4.4-2.7,5.5
	c-2.4,1.1-5,0.4-5.9-1.6l1,2.3c0.9,1.9-0.4,4.4-2.7,5.5c-2.4,1.1-5,0.4-5.9-1.6l-2.1-4.7c0.9,1.9-0.4,4.4-2.8,5.5
	c-2.4,1.1-5,0.4-5.9-1.6l2.1,4.7c0.9,1.9-0.4,4.4-2.8,5.5c-2.4,1.1-5,0.4-5.9-1.6l-2-4.4c-0.5,0.9-1.4,1.6-2.4,2.1
	c-2.4,1.1-5,0.4-5.9-1.6l1,2.3c0.9,2-0.4,4.4-2.8,5.5c-2.4,1.1-5,0.4-5.9-1.6l-84.5-192.2L-657.7,318z"/>
<path class="st2" d="M-1708.9,425.6l0,0.3l-34.1-62.4l-10.8-19.8l-9.7-17.6l-10-18.3l-8.5-15.6l-10.4-19l-8.9-16.2
	c-1-1.9,0-4.4,2.3-5.7c2.3-1.3,5-0.8,6,1.1l-1.2-2.2c-1-1.9,0-4.4,2.3-5.7c2.3-1.3,5-0.8,6,1.1l1.1,1.9c0.6,1,1.9,1.3,2.8,0.6
	c0.2-0.2,0.5-0.4,0.8-0.5c0.7-0.4,1.4-0.6,2.1-0.7c1.3-0.1,2-1.6,1.4-2.7l0,0c-1-1.9,0-4.4,2.3-5.7c2.3-1.3,5-0.8,6,1.1l0,0
	c0.7,1.2,2.3,1.3,3.1,0.2c0.4-0.5,1-1,1.7-1.4c2.3-1.3,5-0.8,6,1.1l-1.2-2.2c-1-1.9,0-4.4,2.3-5.7c2.3-1.3,5-0.8,6,1.1l-1.2-2.2
	c-1-1.9,0-4.4,2.3-5.7c2.3-1.3,5-0.8,6,1.1l0,0c0.7,1.2,2.3,1.3,3.1,0.2c0.4-0.5,1-1,1.7-1.4c0.7-0.4,1.4-0.6,2.1-0.7
	c1.3-0.2,2.1-1.6,1.5-2.8l0,0c-1-1.9,0-4.4,2.3-5.7c1-0.5,2-0.7,2.9-0.6l-0.3-0.5c-1-1.9,0-4.4,2.3-5.7c2.3-1.3,5-0.8,6,1.1
	l38.8,70.9l36.4,66.4v0l10.4,19v0l2.7,4.9l0,0l38.9,71.1c-0.4,0.4,115.1,210.9,115.1,210.9c0.5,1,0.5,2.1,0,3.2
	c-0.4,1-1.2,1.9-2.3,2.5c-0.9,0.5-2,0.7-2.9,0.6l0.3,0.5c1,1.9,0,4.4-2.3,5.7c-2.3,1.3-5,0.8-6-1.1l2.5,4.5c0.7,1.3,0.4,2.8-0.5,4.1
	c-0.4,0.6-1,1.2-1.8,1.6c-0.6,0.4-1.3,0.5-1.9,0.6c-1.7,0.2-3.3-0.4-4.1-1.7l-2.5-4.5c1,1.9,0,4.4-2.3,5.7c-2.3,1.3-5,0.8-6-1.1
	l1.2,2.2c1,1.9,0,4.4-2.3,5.7c-2.3,1.3-5,0.8-6-1.1l1.2,2.2c1,1.9,0,4.4-2.3,5.7c-2.3,1.3-5,0.8-6-1.1l-2.5-4.5c1,1.9,0,4.4-2.3,5.7
	c-2.3,1.3-5,0.8-6-1.1l2.5,4.5c1,1.9,0,4.4-2.3,5.7c-2.3,1.3-5,0.8-6-1.1l-2.4-4.3c-0.5,0.9-1.2,1.7-2.2,2.3c-2.3,1.3-5,0.8-6-1.1
	l1.2,2.2c1,1.9,0,4.4-2.3,5.7c-2.3,1.3-5,0.8-6-1.1l-100.5-184.3L-1708.9,425.6z"/>
<path class="st2" d="M-1152.7,277.3l0,0.3l-34.7-62l-11-19.7l-9.8-17.5l-10.2-18.2l-8.7-15.5l-10.6-18.9l-9-16.1
	c-1-1.9,0-4.4,2.2-5.7c2.3-1.3,5-0.8,6,1l-1.3-2.2c-1-1.9,0-4.4,2.2-5.7c2.3-1.3,5-0.8,6,1l1.1,1.9c0.6,1,1.9,1.3,2.8,0.5
	c0.2-0.2,0.5-0.4,0.8-0.5c0.7-0.4,1.4-0.6,2.1-0.7c1.3-0.2,2-1.6,1.4-2.8l0,0c-1-1.9,0-4.4,2.2-5.7c2.3-1.3,5-0.8,6,1l0,0
	c0.7,1.2,2.3,1.2,3.1,0.2c0.4-0.5,1-1,1.6-1.4c2.3-1.3,5-0.8,6,1l-1.3-2.2c-1-1.9-0.1-4.4,2.2-5.7c2.3-1.3,5-0.8,6,1l-1.3-2.2
	c-1-1.9-0.1-4.4,2.2-5.7c2.3-1.3,5-0.8,6,1l0,0c0.7,1.2,2.3,1.2,3.1,0.2c0.4-0.5,1-1,1.6-1.4c0.7-0.4,1.4-0.6,2.1-0.7
	c1.3-0.2,2.1-1.6,1.5-2.8l0,0c-1.1-1.9-0.1-4.4,2.2-5.7c1-0.5,2-0.7,2.9-0.7l-0.3-0.5c-1-1.9-0.1-4.4,2.2-5.7c2.3-1.3,5-0.8,6,1
	l39.5,70.5l37,66.1v0l10.6,18.9v0l2.7,4.9l0,0l39.6,70.7c-0.4,0.4,189.8,341.4,189.8,341.4c0.6,1,0.5,2.1,0.1,3.2
	c-0.4,1-1.2,1.9-2.3,2.5c-0.9,0.5-1.9,0.7-2.9,0.6l0.3,0.5c1,1.9,0,4.4-2.2,5.7c-2.3,1.3-5,0.8-6-1l2.5,4.5c0.7,1.3,0.5,2.8-0.5,4.1
	c-0.4,0.6-1,1.2-1.8,1.6c-0.6,0.4-1.3,0.5-1.9,0.7c-1.7,0.3-3.3-0.3-4.1-1.7l-2.5-4.5c1.1,1.9,0.1,4.4-2.2,5.7c-2.3,1.3-5,0.8-6-1
	l1.3,2.2c1.1,1.9,0.1,4.4-2.2,5.7c-2.3,1.3-5,0.8-6-1l1.3,2.2c1.1,1.9,0.1,4.4-2.2,5.7c-2.3,1.3-5,0.8-6-1l-2.5-4.5
	c1,1.9,0,4.4-2.2,5.7c-2.3,1.3-5,0.8-6-1l2.5,4.5c1,1.9,0,4.4-2.2,5.7c-2.3,1.3-5,0.8-6-1l-2.4-4.2c-0.5,0.9-1.2,1.7-2.2,2.3
	c-2.3,1.3-5,0.9-6-1l1.3,2.2c1,1.9,0.1,4.4-2.2,5.7c-2.3,1.3-5,0.8-6-1l-174.9-314.9L-1152.7,277.3z"/>
<path class="st2" d="M-992.6,231.9l0,0.3l-34.7-62l-11-19.7l-9.8-17.5l-10.2-18.2l-8.7-15.5l-10.6-18.9l-9-16.1
	c-1-1.9,0-4.4,2.2-5.7c2.3-1.3,5-0.8,6,1l-1.3-2.2c-1-1.9,0-4.4,2.2-5.7c2.3-1.3,5-0.8,6,1l1.1,1.9c0.6,1,1.9,1.3,2.8,0.5
	c0.2-0.2,0.5-0.4,0.8-0.5c0.7-0.4,1.4-0.6,2.1-0.7c1.3-0.2,2-1.6,1.4-2.8l0,0c-1-1.9,0-4.4,2.2-5.7c2.3-1.3,5-0.8,6,1l0,0
	c0.7,1.2,2.3,1.2,3.1,0.2c0.4-0.5,1-1,1.6-1.4c2.3-1.3,5-0.8,6,1l-1.3-2.2c-1-1.9-0.1-4.4,2.2-5.7c2.3-1.3,5-0.8,6,1l-1.3-2.2
	c-1-1.9-0.1-4.4,2.2-5.7c2.3-1.3,5-0.8,6,1v0c0.7,1.2,2.3,1.2,3.1,0.2c0.4-0.5,1-1,1.6-1.4c0.7-0.4,1.4-0.6,2.1-0.7
	c1.3-0.2,2.1-1.6,1.5-2.8l0,0c-1.1-1.9-0.1-4.4,2.2-5.7c1-0.5,2-0.7,2.9-0.7l-0.3-0.5c-1-1.9-0.1-4.4,2.2-5.7c2.3-1.3,5-0.8,6,1
	l39.5,70.5l37,66.1v0l10.6,18.9v0l2.7,4.9l0,0l39.6,70.7c-0.4,0.4,189.8,341.4,189.8,341.4c0.6,1,0.5,2.1,0.1,3.2
	c-0.4,1-1.2,1.9-2.3,2.5c-0.9,0.5-1.9,0.7-2.9,0.6l0.3,0.5c1,1.9,0,4.4-2.2,5.7c-2.3,1.3-5,0.8-6-1l2.5,4.5c0.7,1.3,0.5,2.8-0.5,4.1
	c-0.4,0.6-1,1.2-1.8,1.6c-0.6,0.4-1.3,0.5-1.9,0.7c-1.7,0.3-3.3-0.3-4.1-1.7l-2.5-4.5c1.1,1.9,0.1,4.4-2.2,5.7c-2.3,1.3-5,0.8-6-1
	l1.3,2.2c1.1,1.9,0.1,4.4-2.2,5.7c-2.3,1.3-5,0.8-6-1l1.3,2.2c1.1,1.9,0.1,4.4-2.2,5.7c-2.3,1.3-5,0.8-6-1l-2.5-4.5
	c1,1.9,0,4.4-2.2,5.7c-2.3,1.3-5,0.8-6-1l2.5,4.5c1,1.9,0,4.4-2.2,5.7c-2.3,1.3-5,0.8-6-1l-2.4-4.2c-0.5,0.9-1.2,1.7-2.2,2.3
	c-2.3,1.3-5,0.9-6-1l1.3,2.2c1,1.9,0.1,4.4-2.2,5.7c-2.3,1.3-5,0.8-6-1l-174.9-314.9L-992.6,231.9z"/>
<path class="st2" d="M-1651.4,259.7l0,0.3l-34.4-62.2l-10.9-19.8l-9.7-17.6l-10.1-18.2l-8.6-15.6l-10.5-19l-8.9-16.2
	c-1-1.9,0-4.4,2.3-5.7c2.3-1.3,5-0.8,6,1l-1.3-2.2c-1-1.9,0-4.4,2.3-5.7c2.3-1.3,5-0.8,6,1l1.1,1.9c0.6,1,1.9,1.3,2.8,0.6
	c0.2-0.2,0.5-0.4,0.8-0.5c0.7-0.4,1.4-0.6,2.1-0.7c1.3-0.1,2-1.6,1.4-2.7l0,0c-1-1.9,0-4.4,2.3-5.7c2.3-1.3,5-0.8,6,1l0,0
	c0.7,1.2,2.3,1.2,3.1,0.2c0.4-0.5,1-1,1.7-1.4c2.3-1.3,5-0.8,6,1l-1.3-2.2c-1-1.9,0-4.4,2.3-5.7c2.3-1.3,5-0.8,6,1l-1.3-2.2
	c-1-1.9,0-4.4,2.3-5.7c2.3-1.3,5-0.8,6,1v0c0.7,1.2,2.3,1.2,3.1,0.2c0.4-0.5,1-1,1.6-1.4c0.7-0.4,1.4-0.6,2.1-0.7
	c1.3-0.2,2.1-1.6,1.5-2.8l0,0c-1-1.9,0-4.4,2.3-5.7c1-0.5,2-0.7,2.9-0.6l-0.3-0.5c-1-1.9,0-4.4,2.3-5.7c2.3-1.3,5-0.8,6,1l39.1,70.7
	l36.6,66.3v0l10.5,19v0l2.7,4.9l0,0l39.2,71c-0.4,0.4,187.8,342.4,187.8,342.4c0.5,1,0.5,2.1,0.1,3.2c-0.4,1-1.2,1.9-2.3,2.5
	c-0.9,0.5-1.9,0.7-2.9,0.6l0.3,0.5c1,1.9,0,4.4-2.3,5.7c-2.3,1.3-5,0.8-6-1l2.5,4.5c0.7,1.3,0.4,2.8-0.5,4.1c-0.4,0.6-1,1.2-1.8,1.6
	c-0.6,0.4-1.3,0.5-1.9,0.6c-1.7,0.2-3.3-0.3-4.1-1.7l-2.5-4.5c1,1.9,0,4.4-2.2,5.7c-2.3,1.3-5,0.8-6-1l1.2,2.2c1,1.9,0,4.4-2.3,5.7
	c-2.3,1.3-5,0.8-6-1l1.2,2.2c1,1.9,0,4.4-2.2,5.7c-2.3,1.3-5,0.8-6-1l-2.5-4.5c1,1.9,0,4.4-2.3,5.7c-2.3,1.3-5,0.8-6-1l2.5,4.5
	c1,1.9,0,4.4-2.3,5.7c-2.3,1.3-5,0.8-6-1l-2.4-4.2c-0.5,0.9-1.2,1.7-2.2,2.3c-2.3,1.3-5,0.8-6-1l1.3,2.2c1,1.9,0,4.4-2.3,5.7
	c-2.3,1.3-5,0.8-6-1l-173.1-315.9L-1651.4,259.7z"/>
<path class="st2" d="M-1544.7,208.9l-0.1,0.3l-16.8-69.1l-5.3-21.9l-4.8-19.5l2-8.7l2.3,12.2l-4.3-3.5l-1.7-3.8
	c-0.5-2.1,1.1-4.3,3.7-4.9c2.5-0.6,5,0.5,5.5,2.6l-0.6-2.5c-0.5-2.1,1.1-4.3,3.7-4.9c2.5-0.6,5,0.5,5.5,2.6l0.5,2.1
	c0.3,1.1,1.5,1.7,2.5,1.3c0.3-0.1,0.6-0.2,0.9-0.3c0.8-0.2,1.5-0.2,2.2-0.1c1.3,0.2,2.4-1,2.1-2.3l0,0c-0.5-2.1,1.1-4.2,3.7-4.9
	c2.5-0.6,5,0.5,5.5,2.6l0,0c0.3,1.3,1.9,1.8,3,1c0.6-0.4,1.2-0.7,2-0.9c2.5-0.6,5,0.5,5.5,2.6l-0.6-2.5c-0.5-2.1,1.1-4.2,3.7-4.9
	c2.5-0.6,5,0.5,5.5,2.6l-0.6-2.5c-0.5-2.1,1.1-4.3,3.7-4.9c2.5-0.6,5,0.5,5.5,2.6l0,0c0.3,1.3,1.9,1.8,3,1c0.6-0.4,1.2-0.7,2-0.9
	c0.7-0.2,1.5-0.2,2.2-0.1c1.3,0.2,2.5-1,2.1-2.3l0,0c-0.5-2.1,1.1-4.2,3.7-4.9c1.1-0.3,2.1-0.1,3,0.1l-0.1-0.6
	c-0.5-2.1,1.1-4.2,3.7-4.9c2.5-0.6,5,0.5,5.5,2.6l2.2,5.8l17.9,73.6v0l5.1,21.1v0l1.3,5.4l0,0l19.2,78.8
	c-0.5,0.2,91.1,379.8,91.1,379.8c0.3,1.1-0.1,2.2-0.8,3.1c-0.7,0.8-1.7,1.5-2.9,1.8c-1,0.2-2.1,0.1-3-0.2l0.1,0.6
	c0.5,2.1-1.1,4.2-3.7,4.9c-2.6,0.6-5-0.5-5.5-2.6l1.2,5c0.3,1.4-0.3,2.9-1.6,3.8c-0.6,0.5-1.3,0.9-2.1,1.1c-0.7,0.2-1.4,0.2-2,0.1
	c-1.7-0.2-3.1-1.2-3.5-2.7l-1.2-5c0.5,2.1-1.1,4.3-3.7,4.9c-2.6,0.6-5-0.5-5.5-2.6l0.6,2.5c0.5,2.1-1.1,4.3-3.7,4.9
	c-2.6,0.6-5-0.5-5.5-2.6l0.6,2.5c0.5,2.1-1.1,4.3-3.7,4.9c-2.6,0.6-5-0.5-5.5-2.6l-1.2-5c0.5,2.1-1.1,4.3-3.7,4.9
	c-2.5,0.6-5-0.5-5.5-2.6l1.2,5c0.5,2.1-1.1,4.2-3.7,4.9c-2.6,0.6-5-0.5-5.5-2.6l-1.2-4.7c-0.7,0.7-1.6,1.3-2.7,1.6
	c-2.5,0.6-5-0.5-5.5-2.6l0.6,2.5c0.5,2.1-1.1,4.3-3.7,4.9c-2.5,0.6-5-0.5-5.5-2.6l-83.9-350.3L-1544.7,208.9z"/>
<path class="st2" d="M-1370.7,226.4l-0.1,0.3l-16.8-69.1l-5.3-21.9l-4.8-19.5l-4.9-20.2l-4.2-17.3l-5.1-21.1l-4.4-17.9
	c-0.5-2.1,1.1-4.3,3.7-4.9c2.5-0.6,5,0.5,5.5,2.6l-0.6-2.5c-0.5-2.1,1.1-4.3,3.7-4.9c2.5-0.6,5,0.5,5.5,2.6l0.5,2.1
	c0.3,1.1,1.5,1.7,2.5,1.3c0.3-0.1,0.6-0.2,0.9-0.3c0.8-0.2,1.5-0.2,2.2-0.1c1.3,0.2,2.4-1,2.1-2.3l0,0c-0.5-2.1,1.1-4.2,3.7-4.9
	c2.5-0.6,5,0.5,5.5,2.6l0,0c0.3,1.3,1.9,1.8,3,1c0.6-0.4,1.2-0.7,2-0.9c2.5-0.6,5,0.5,5.5,2.6l-0.6-2.5c-0.5-2.1,1.1-4.2,3.7-4.9
	c2.5-0.6,5,0.5,5.5,2.6l-0.6-2.5c-0.5-2.1,1.1-4.3,3.7-4.9c2.5-0.6,5,0.5,5.5,2.6v0c0.3,1.3,1.9,1.8,3,1c0.6-0.4,1.2-0.7,2-0.9
	c0.7-0.2,1.5-0.2,2.2-0.1c1.3,0.2,2.5-1,2.1-2.3l0,0c-0.5-2.1,1.1-4.2,3.7-4.9c1.1-0.3,2.1-0.1,3,0.1l-0.1-0.6
	c-0.5-2.1,1.1-4.2,3.7-4.9c2.5-0.6,5,0.5,5.5,2.6l19.1,78.5l17.9,73.6v0l5.1,21.1v0l1.3,5.4l0,0l19.2,78.8
	c-0.5,0.2,91.1,379.8,91.1,379.8c0.3,1.1-0.1,2.2-0.8,3.1c-0.7,0.8-1.7,1.5-2.9,1.8c-1,0.2-2.1,0.1-3-0.2l0.1,0.6
	c0.5,2.1-1.1,4.2-3.7,4.9c-2.6,0.6-5-0.5-5.5-2.6l1.2,5c0.3,1.4-0.3,2.9-1.6,3.8c-0.6,0.5-1.3,0.9-2.1,1.1c-0.7,0.2-1.4,0.2-2,0.1
	c-1.7-0.2-3.1-1.2-3.5-2.7l-1.2-5c0.5,2.1-1.1,4.3-3.7,4.9c-2.6,0.6-5-0.5-5.5-2.6l0.6,2.5c0.5,2.1-1.1,4.3-3.7,4.9
	c-2.6,0.6-5-0.5-5.5-2.6l0.6,2.5c0.5,2.1-1.1,4.3-3.7,4.9c-2.6,0.6-5-0.5-5.5-2.6l-1.2-5c0.5,2.1-1.1,4.3-3.7,4.9
	c-2.5,0.6-5-0.5-5.5-2.6l1.2,5c0.5,2.1-1.1,4.2-3.7,4.9c-2.6,0.6-5-0.5-5.5-2.6l-1.2-4.7c-0.7,0.7-1.6,1.3-2.7,1.6
	c-2.5,0.6-5-0.5-5.5-2.6l0.6,2.5c0.5,2.1-1.1,4.3-3.7,4.9c-2.5,0.6-5-0.5-5.5-2.6l-83.9-350.3L-1370.7,226.4z"/>
<path class="st2" d="M-1226.6,187.6l-0.1,0.3l-9.9-70.4l-3.2-22.3l-2.8-19.9l-2.9-20.6l2,15.4l-3.6-19.1l1.9,14.7
	c-0.3-2.1,1.6-4.1,4.1-4.5c2.6-0.4,4.9,1,5.2,3.1l-0.4-2.5c-0.3-2.1,1.6-4.1,4.1-4.5c2.6-0.4,4.9,1,5.3,3.1l0.3,2.2
	c0.2,1.1,1.3,1.8,2.4,1.5c0.3-0.1,0.6-0.2,0.9-0.2c0.8-0.1,1.5-0.1,2.2,0.1c1.3,0.3,2.5-0.8,2.3-2.1l0,0c-0.3-2.1,1.5-4.1,4.1-4.5
	c2.6-0.4,4.9,1,5.3,3.1l0,0c0.2,1.3,1.7,2,2.8,1.3c0.6-0.4,1.3-0.6,2-0.7c2.6-0.4,4.9,1,5.3,3.1l-0.4-2.5c-0.3-2.1,1.5-4.1,4.1-4.5
	c2.6-0.4,5,1,5.3,3.1l-0.4-2.5c-0.3-2.1,1.5-4.1,4.1-4.5c2.6-0.4,4.9,1,5.3,3.1v0c0.2,1.3,1.7,2,2.8,1.3c0.6-0.3,1.3-0.6,2-0.7
	c0.8-0.1,1.5-0.1,2.2,0.1c1.3,0.3,2.6-0.7,2.4-2.1l0,0c-0.3-2.1,1.5-4.1,4.1-4.5c1.1-0.2,2.1,0.1,2.9,0.4l-0.1-0.6
	c-0.3-2.1,1.5-4.1,4.1-4.5c2.6-0.4,4.9,1,5.3,3.1l2.9,11.6l10.6,75v0l3,21.5l0,0l0.8,5.5l0,0l11.3,80.3
	c-0.5,0.2,53.4,386.9,53.4,386.9c0.2,1.1-0.3,2.1-1.1,3c-0.8,0.8-1.8,1.3-3.1,1.5c-1.1,0.1-2.1-0.1-2.9-0.4l0.1,0.6
	c0.3,2.1-1.5,4.1-4.1,4.5c-2.6,0.4-4.9-1-5.2-3.1l0.7,5.1c0.2,1.4-0.6,2.8-1.9,3.7c-0.6,0.4-1.4,0.7-2.2,0.8c-0.7,0.1-1.4,0-2-0.1
	c-1.7-0.4-3-1.5-3.2-3l-0.7-5.1c0.3,2.1-1.5,4.1-4.1,4.5c-2.6,0.4-5-1-5.2-3.1l0.4,2.5c0.3,2.1-1.5,4.1-4.1,4.5
	c-2.6,0.4-4.9-1-5.3-3.1l0.4,2.5c0.3,2.1-1.5,4.1-4.1,4.5c-2.6,0.4-4.9-1-5.3-3.1l-0.7-5.1c0.3,2.1-1.5,4.1-4.1,4.5
	c-2.6,0.4-4.9-1-5.3-3.1l0.7,5.1c0.3,2.1-1.5,4.1-4.1,4.5c-2.6,0.4-4.9-1-5.2-3.1l-0.7-4.8c-0.7,0.7-1.7,1.2-2.9,1.3
	c-2.6,0.4-5-1-5.3-3.1l0.4,2.5c0.3,2.1-1.5,4.1-4.1,4.5c-2.6,0.4-4.9-1-5.3-3.1l-49.1-356.9L-1226.6,187.6z"/>
<path class="st2" d="M-721.1,205.6l-0.1,0.3l-0.2,0.5l-3.2-22.3l-2.8-19.9l-2.9-20.6l2,15.4l-3.6-19.1l1.9,14.7
	c-0.3-2.1,1.6-4.1,4.1-4.5c2.6-0.4,4.9,1,5.2,3.1l-0.4-2.5c-0.3-2.1,1.6-4.1,4.1-4.5c2.6-0.4,4.9,1,5.3,3.1l0.3,2.2
	c0.2,1.1,1.3,1.8,2.4,1.5c0.3-0.1,0.6-0.2,0.9-0.2c0.8-0.1,1.5-0.1,2.2,0.1c1.3,0.3,2.5-0.8,2.3-2.1l0,0c-0.3-2.1,1.5-4.1,4.1-4.5
	c2.6-0.4,4.9,1,5.3,3.1l0,0c0.2,1.3,1.7,2,2.8,1.3c0.6-0.4,1.3-0.6,2-0.7c2.6-0.4,4.9,1,5.2,3.1l-0.4-2.5c-0.3-2.1,1.5-4.1,4.1-4.5
	c2.6-0.4,5,1,5.2,3.1l-0.4-2.5c-0.3-2.1,1.5-4.1,4.1-4.5c2.6-0.4,4.9,1,5.3,3.1l0,0c0.2,1.3,1.7,2,2.8,1.3c0.6-0.3,1.3-0.6,2-0.7
	c0.8-0.1,1.5-0.1,2.2,0.1c1.3,0.3,2.6-0.7,2.4-2.1l0,0c-0.3-2.1,1.5-4.1,4.1-4.5c1.1-0.2,2.1,0.1,2.9,0.4l-0.1-0.6
	c-0.3-2.1,1.5-4.1,4.1-4.5c2.6-0.4,4.9,1,5.3,3.1l2.9,11.6l0.8,4.1l0,0l3,21.5v0l0.8,5.5l0,0l11.3,80.3
	c-0.5,0.2,53.4,386.9,53.4,386.9c0.2,1.1-0.3,2.1-1.1,3c-0.8,0.8-1.8,1.3-3.1,1.5c-1.1,0.1-2.1-0.1-2.9-0.4l0.1,0.6
	c0.3,2.1-1.5,4.1-4.1,4.5c-2.6,0.4-4.9-1-5.2-3.1l0.7,5.1c0.2,1.4-0.6,2.8-1.9,3.7c-0.6,0.4-1.4,0.7-2.2,0.8c-0.7,0.1-1.4,0-2-0.1
	c-1.7-0.4-3-1.5-3.2-3l-0.7-5.1c0.3,2.1-1.5,4.1-4.1,4.5c-2.6,0.4-5-1-5.2-3.1l0.4,2.5c0.3,2.1-1.5,4.1-4.1,4.5
	c-2.6,0.4-4.9-1-5.3-3.1l0.4,2.5c0.3,2.1-1.5,4.1-4.1,4.5c-2.6,0.4-4.9-1-5.3-3.1l-0.7-5.1c0.3,2.1-1.5,4.1-4.1,4.5
	c-2.6,0.4-4.9-1-5.3-3.1l0.7,5.1c0.3,2.1-1.5,4.1-4.1,4.5c-2.6,0.4-4.9-1-5.2-3.1l-0.7-4.8c-0.7,0.7-1.7,1.2-2.9,1.3
	c-2.6,0.4-5-1-5.3-3.1l0.4,2.5c0.3,2.1-1.5,4.1-4.1,4.5c-2.6,0.4-4.9-1-5.2-3.1l-49.1-356.9L-721.1,205.6z"/>
<path class="st2" d="M-1046.8,225.2l-0.1,0.3l-16.8-69.1l-5.3-21.9l-4.8-19.5l-4.9-20.2l-4.2-17.3l-5.1-21.1l-4.4-17.9
	c-0.5-2.1,1.1-4.3,3.7-4.9c2.5-0.6,5,0.5,5.5,2.6l-0.6-2.5c-0.5-2.1,1.1-4.3,3.7-4.9c2.5-0.6,5,0.5,5.5,2.6l0.5,2.1
	c0.3,1.1,1.5,1.7,2.5,1.3c0.3-0.1,0.6-0.2,0.9-0.3c0.8-0.2,1.5-0.2,2.2-0.1c1.3,0.2,2.4-1,2.1-2.3l0,0c-0.5-2.1,1.1-4.2,3.7-4.9
	c2.5-0.6,5,0.5,5.5,2.6l0,0c0.3,1.3,1.9,1.8,3,1c0.6-0.4,1.2-0.7,2-0.9c2.5-0.6,5,0.5,5.5,2.6l-0.6-2.5c-0.5-2.1,1.1-4.2,3.7-4.9
	c2.5-0.6,5,0.5,5.5,2.6l-0.6-2.5c-0.5-2.1,1.1-4.3,3.7-4.9c2.5-0.6,5,0.5,5.5,2.6v0c0.3,1.3,1.9,1.8,3,1c0.6-0.4,1.2-0.7,2-0.9
	c0.7-0.2,1.5-0.2,2.2-0.1c1.3,0.2,2.5-1,2.1-2.3l0,0c-0.5-2.1,1.1-4.2,3.7-4.9c1.1-0.3,2.1-0.1,3,0.1l-0.1-0.6
	c-0.5-2.1,1.1-4.2,3.7-4.9c2.5-0.6,5,0.5,5.5,2.6l19.1,78.5l17.9,73.6v0l5.1,21.1v0l1.3,5.4l0,0l19.2,78.8
	c-0.5,0.2,91.1,379.8,91.1,379.8c0.3,1.1-0.1,2.2-0.8,3.1c-0.7,0.8-1.7,1.5-2.9,1.8c-1,0.2-2.1,0.1-3-0.2l0.1,0.6
	c0.5,2.1-1.1,4.2-3.7,4.9c-2.6,0.6-5-0.5-5.5-2.6l1.2,5c0.3,1.4-0.3,2.9-1.6,3.8c-0.6,0.5-1.3,0.9-2.1,1.1c-0.7,0.2-1.4,0.2-2,0.1
	c-1.7-0.2-3.1-1.2-3.5-2.7l-1.2-5c0.5,2.1-1.1,4.3-3.7,4.9c-2.6,0.6-5-0.5-5.5-2.6l0.6,2.5c0.5,2.1-1.1,4.3-3.7,4.9
	c-2.6,0.6-5-0.5-5.5-2.6l0.6,2.5c0.5,2.1-1.1,4.3-3.7,4.9c-2.6,0.6-5-0.5-5.5-2.6l-1.2-5c0.5,2.1-1.1,4.3-3.7,4.9
	c-2.5,0.6-5-0.5-5.5-2.6l1.2,5c0.5,2.1-1.1,4.2-3.7,4.9c-2.6,0.6-5-0.5-5.5-2.6l-1.2-4.7c-0.7,0.7-1.6,1.3-2.7,1.6
	c-2.5,0.6-5-0.5-5.5-2.6l0.6,2.5c0.5,2.1-1.1,4.3-3.7,4.9c-2.5,0.6-5-0.5-5.5-2.6l-83.9-350.3L-1046.8,225.2z"/>
<path class="st2" d="M-886.7,177.4l-0.1,0.3l-16.8-69.1l-5.3-21.9l-4.8-19.5l16.9,62.3l-4.2-17.3l-5.1-21.1l-4.4-17.9
	c-0.5-2.1,1.1-4.3,3.7-4.9c2.5-0.6,5,0.5,5.5,2.6l-0.6-2.5c-0.5-2.1,1.1-4.3,3.7-4.9c2.5-0.6,5,0.5,5.5,2.6l0.5,2.1
	c0.3,1.1,1.5,1.7,2.5,1.3c0.3-0.1,0.6-0.2,0.9-0.3c0.8-0.2,1.5-0.2,2.2-0.1c1.3,0.2,2.4-1,2.1-2.3l0,0c-0.5-2.1,1.1-4.2,3.7-4.9
	c2.5-0.6,5,0.5,5.5,2.6l0,0c0.3,1.3,1.9,1.8,3,1c0.6-0.4,1.2-0.7,2-0.9c2.5-0.6,5,0.5,5.5,2.6l-0.6-2.5c-0.5-2.1,1.1-4.2,3.7-4.9
	c2.5-0.6,5,0.5,5.5,2.6l-0.6-2.5c-0.5-2.1,1.1-4.3,3.7-4.9c2.5-0.6,5,0.5,5.5,2.6v0c0.3,1.3,1.9,1.8,3,1c0.6-0.4,1.2-0.7,2-0.9
	c0.7-0.2,1.5-0.2,2.2-0.1c1.3,0.2,2.5-1,2.1-2.3l0,0c-0.5-2.1,1.1-4.2,3.7-4.9c1.1-0.3,2.1-0.1,3,0.1l-0.1-0.6
	c-0.5-2.1,1.1-4.2,3.7-4.9c2.5-0.6,5,0.5,5.5,2.6l19.1,78.5l-3.9-8.9v0l5.1,21.1l0,0l1.3,5.4l0,0l19.2,78.8
	c-0.5,0.2,91.1,379.8,91.1,379.8c0.3,1.1-0.1,2.2-0.8,3.1c-0.7,0.8-1.7,1.5-2.9,1.8c-1,0.2-2.1,0.1-3-0.2l0.1,0.6
	c0.5,2.1-1.1,4.2-3.7,4.9c-2.6,0.6-5-0.5-5.5-2.6l1.2,5c0.3,1.4-0.3,2.9-1.6,3.8c-0.6,0.5-1.3,0.9-2.1,1.1c-0.7,0.2-1.4,0.2-2,0.1
	c-1.7-0.2-3.1-1.2-3.5-2.7l-1.2-5c0.5,2.1-1.1,4.3-3.7,4.9c-2.6,0.6-5-0.5-5.5-2.6l0.6,2.5c0.5,2.1-1.1,4.3-3.7,4.9
	c-2.6,0.6-5-0.5-5.5-2.6l0.6,2.5c0.5,2.1-1.1,4.3-3.7,4.9c-2.6,0.6-5-0.5-5.5-2.6l-1.2-5c0.5,2.1-1.1,4.3-3.7,4.9
	c-2.5,0.6-5-0.5-5.5-2.6l1.2,5c0.5,2.1-1.1,4.2-3.7,4.9c-2.6,0.6-5-0.5-5.5-2.6l-1.2-4.7c-0.7,0.7-1.6,1.3-2.7,1.6
	c-2.5,0.6-5-0.5-5.5-2.6l0.6,2.5c0.5,2.1-1.1,4.3-3.7,4.9c-2.5,0.6-5-0.5-5.5-2.6l-83.9-350.3L-886.7,177.4z"/>
<g>
	<polygon class="st2" points="1136.7,-812.6 1135.6,-751.1 1138.6,-746.4 1157,-746.4 1157,-833.2 1125,-833.2 1112.6,-787.2 
		1112.6,-787.2 1124,-769.3 	"/>
</g>
<g>
	<polygon class="st2" points="1099.6,-807.6 1092.9,-833.2 1083.3,-833.2 1083.3,-833.2 1099.6,-807.6 	"/>
</g>
<g>
	<polygon class="st2" points="1135.6,-751.1 1135.6,-746.4 1138.6,-746.4 1138.6,-746.4 1135.6,-751.1 	"/>
</g>
<polygon class="st8" points="1059.9,-746.4 1081.3,-746.4 1080.6,-812.5 1099.8,-746.4 1117.3,-746.4 1124,-769.3 1124,-769.3 
	1112.6,-787.2 1108.7,-773 1099.6,-807.6 1083.3,-833.2 1059.9,-833.2 "/>
<g>
	<polygon class="st2" points="1068.5,-600 1091.3,-600 1091.3,-635.9 1100.8,-635.9 1068.5,-686.5 	"/>
</g>
<g>
	<polygon class="st2" points="1120.7,-600 1123.6,-600 1120.7,-604.6 	"/>
</g>
<polygon class="st8" points="1143.5,-600 1143.5,-686.9 1120.7,-686.9 1120.7,-655.9 1098,-655.9 1091.3,-655.9 1091.3,-666.4 
	1091.3,-686.9 1078.3,-686.9 1068.5,-686.9 1068.5,-686.5 1100.8,-635.9 1110.8,-635.9 1120.7,-635.9 1120.7,-620.3 1120.7,-604.6 
	1123.6,-600 1133.6,-600 "/>
<g>
	<path class="st2" d="M1211.1-670.5c12.2,0,19.6,10,19.6,26.5c0,12.7-3.9,21.5-10.8,25.3l10.6,16.7c14.8-7.1,23.3-22.7,23.3-41.2
		c0-27.9-16.7-45.6-42.6-45.6c-11.8,0-21.8,4.1-29.2,10.9l12,18.9C1197.5-666.4,1203.4-670.5,1211.1-670.5z"/>
</g>
<path class="st8" d="M1168.1-643.4c0,26.5,16.7,45.5,43.5,45.5c6.5,0,12.3-1.2,17.5-3.4c0.5-0.2,1-0.5,1.5-0.7l-10.6-16.7
	c-0.5,0.3-1,0.5-1.5,0.7c-2.2,0.9-4.5,1.4-7.2,1.4c-12.6,0-20-10.1-20-27.1c0-5.2,0.8-9.7,2.2-13.6c0.2-0.7,0.5-1.3,0.8-1.9
	l-12-18.9c-0.4,0.4-0.8,0.8-1.2,1.2C1172.8-668.6,1168.1-656.8,1168.1-643.4z"/>
<g>
	<polygon class="st2" points="985.3,-765.5 985.3,-782.5 1007.3,-782.5 996.1,-800.1 985.3,-800.1 985.3,-815.1 986.6,-815.1 
		975,-833.2 974.9,-833.4 962.7,-833.4 962.7,-746.5 1030.3,-746.5 1018.1,-765.5 	"/>
</g>
<polygon class="st8" points="1033.3,-765.5 1018.1,-765.5 1030.3,-746.5 1033.3,-746.5 "/>
<polygon class="st8" points="1028.2,-782.5 1028.2,-800.1 996.1,-800.1 1007.3,-782.5 "/>
<polygon class="st8" points="986.6,-815.1 1032.2,-815.1 1032.2,-833.4 974.9,-833.4 975,-833.2 "/>
<g>
	<path d="M311.4,248.8h38.2c19.9,0,34.3,7.8,34.3,29.3c0,19.5-12.6,28.5-30.6,28.5h-19.1v29h-22.7V248.8z M346.9,289
		c7.8,0,15-0.6,15-10.7c0-8.4-5.2-11-13.2-11h-14.6V289H346.9z"/>
</g>
<g>
	<path d="M655.8,337.7c-26.8,0-43.5-19-43.5-45.5c0-25.7,17.2-45.5,43.3-45.5c25.9,0,42.6,17.7,42.6,45.6
		C698.2,317.8,682.2,337.7,655.8,337.7z M655.3,265.1c-12.2,0-19.9,10.4-19.9,26.8c0,17,7.4,27.1,20,27.1
		c12.3,0,19.5-10.1,19.5-27.4C675,275.1,667.5,265.1,655.3,265.1z"/>
</g>
<g>
	<path d="M793.8,335.6h-22.8v-35.9h-29.4v35.9h-22.8v-86.8h22.8v31h29.4v-31h22.8V335.6z"/>
</g>
<path class="st9" d="M864.8,268.1v67.6h-22.9v-67.6H864.8z"/>
<g>
	<path d="M989.9,335.6h-22.1l1.6-57.8l-29.6,57.8h-24.9v-86.8H937l-0.9,57.8l29.6-57.8h24.1V335.6z"/>
</g>
<g>
	<path d="M393.7,413.4h-47v15h42.9V446h-42.9v17h48.1v19h-70.6v-86.8h69.5V413.4z"/>
</g>
<g>
	<path d="M415.1,395.1h38.2c19.9,0,34.3,7.8,34.3,29.3c0,19.5-12.6,28.5-30.6,28.5h-19.1v29h-22.7V395.1z M450.6,435.4
		c7.8,0,15-0.6,15-10.7c0-8.4-5.2-11-13.2-11h-14.6v21.7H450.6z"/>
</g>
<g>
	<path d="M788,482h-22.8v-67.6h-29.4V482H713v-86.8h75V482z"/>
</g>
<g>
	<path d="M853.6,484.1c-26.8,0-43.5-19-43.5-45.5c0-25.7,17.2-45.5,43.3-45.5c25.9,0,42.6,17.7,42.6,45.6
		C895.9,464.2,879.9,484.1,853.6,484.1z M853.1,411.5c-12.2,0-19.9,10.4-19.9,26.8c0,17,7.4,27.1,20,27.1
		c12.3,0,19.5-10.1,19.5-27.4C872.7,421.5,865.3,411.5,853.1,411.5z"/>
</g>
<g>
	<path d="M1069.5,482v-32.1h-8.1l-22.9,32.1h-28.8l27-33.2c-11.5-2.9-19.9-12.2-19.9-26.1c0-18.5,13.9-27.6,29.9-27.6h45.4V482
		H1069.5z M1069.5,412.7h-16.6c-9.4,0-13.9,3.3-13.9,10.1c0,9.1,6.2,10.7,13.7,10.7h16.8V412.7z"/>
</g>
<path d="M903.4,240.1H898v-5.4h5.4v-5.4h-30.2l-16.2-14.1c0.1-0.2,0.2-0.5,0.3-0.8c1.2-3.1,1.1-5.8,3.4-6c2.7-0.2,2.5-4-1.3-3.9
	c-1.4,0-3,0.6-4.8,3.2c-0.7,1-1.2,2.4-2.1,3.5l-1.8-1.6c-0.7-0.6-1.7-0.6-2.4,0l-2.5,2.2c-1.4-1.3-2-3.5-2-6c0-2.8,1.5-6.1,4.3-6.1
	c2.8,0,4.7,0.6,4.7,0.6v-12.7h-1.8v-45.1h-3.6v45.1h-1.8v8.4c-5.4,0.3-7.4,4.5-7.4,10.5c0,3.5,0.6,7.1,2.8,9.5l-15.1,13.2h-23.6v5.4
	h3.6v5.4h-3.6v5.4h101.1V240.1z M844.1,218.2c1.2,0.5,2.7,0.8,4.4,0.8c2.9,0,4.8-0.4,6.1-1.2l13.1,11.4h-36.3L844.1,218.2z
	 M844.1,218.2"/>
<path d="M712.8,627.4l5.2-3.6l1.3-0.9l-18.7-27.5l48.4-33c2.2-1.5,3.4-3.3,3.7-5.4c0.4-3.1-1.6-5.6-1.6-5.6l-15.7-23.1
	c-0.1-0.2-1.9-4.4-6.2-4.4c-1.6,0-3.3,0.6-5.1,1.8l-5.7,3.8c0.4,0.4,0.7,0.8,1.1,1.2c1.3,1.6,2.6,3.3,3.8,5c0.3,0.4,0.6,0.9,0.9,1.3
	l4-2.7l14.2,20.9l-48.4,33c-2.1,1.4-3.3,3.2-3.6,5.2c-0.5,3.2,1.5,5.8,1.5,5.8l19.6,28.8L712.8,627.4z M712.8,627.4"/>
<path d="M628.7,602.4c-0.3-0.4-0.6-0.8-0.9-1.3c-1.2-1.8-2.3-3.7-3.2-5.5c-0.2-0.5-0.4-1-0.7-1.5l-8.4,5.7l5.3,7.9L628.7,602.4z
	 M628.7,602.4"/>
<path d="M715.5,637.1l26.1,38.3c0,0,3.6,3.5,8.7-0.1c5.1-3.7,2-7,2-7l-27.4-38.6l5.2-3.6l-2.8-4.6l-7.5,5.1l-5.2,3.6l-7.8,5.3
	l3.6,5.2L715.5,637.1z M715.5,637.1"/>
<path class="st10" d="M718,539.6L718,539.6c-1.2-1.8-2.5-3.5-3.9-5c-3-3.5-6.1-6.4-7.9-8l-80,54.5c0.5,2.3,1.6,6.4,3.7,10.9
	c0.9,1.8,1.9,3.7,3.1,5.5c4.3,6.3,10.1,10.6,12.8,12.3l80-54.5C724.7,552,722,545.4,718,539.6L718,539.6z M718,539.6"/>
<rect id="SVGID_1_" x="605.6" y="492.5" class="st6" width="150" height="185.9"/>
<g>
	<rect x="252.5" y="435.1" width="20.9" height="48.7"/>
</g>
<g>
	<path d="M1090.9,342.4l-10.7,21.6l-3.6-1.8l10.7-21.6L1090.9,342.4z M1104.3,325.1l-1,1.8c-1.2,2.1-3.5,6.4-6.8,7.3l-3.1,6.4l-6-3
		l3.1-6.3c-1.5-3.4,0.7-8.4,1.6-10.6l0.6-1.5L1104.3,325.1z M1099.2,328.5l-6.1-3c-0.8,2.5-0.9,5,0.9,5.8
		C1095.9,332.3,1097.6,330.9,1099.2,328.5L1099.2,328.5z M1066.6,384.9c1.7-0.2,5.7-0.3,8.9,2.1c0.6,0.4,1.1,1,1.6,1.5l2.2-4.4l1-2
		l3.3-6.7c0.5-0.9-1.7-2.7-5.2-4.7l1.8-3.7l-6-3l-1.8,3.7c-1.9-0.7-4.5-1.6-5.9-1.6c-0.5,0-0.8,0.1-0.9,0.3l-4.5,9.1l-2.1,4.2
		l-0.1,0.2c-0.1,0.3-0.1,0.7-0.1,1.1C1061.4,381.3,1064.1,382.3,1066.6,384.9L1066.6,384.9z M1089.4,393.3c0-2.1-2-2.8-3.6-2.8
		c-0.4,0-0.8,0.1-1.2,0.3c0.6-0.9,0.9-1.9,0.9-3.1c0-2.5-1.3-4.4-3-4.9l-3.5,7.1c-0.1,0.2-0.3,0.4-0.5,0.6c0.7,1.5,1.2,3.3,1.3,5.4
		c0.1,0.8-0.5,1.4-1.3,1.5c0,0-0.1,0-0.1,0c-0.7,0-1.3-0.6-1.4-1.3c-0.3-3.3-1.3-5.7-3.3-7.1c-3.1-2.3-7.4-1.5-7.4-1.5l-0.8,0.2
		l-0.5-0.6c-6.8-7.2-13.8-1.1-14.1-0.8c-0.6,0.5-1.5,0.5-2-0.1c-0.5-0.6-0.5-1.5,0.1-2c1.6-1.4,4.2-3,7.3-3.3
		c-0.1-0.6,0-1.2,0.2-1.7l0.7-1.3l1.2-2.5c-0.9,0-0.8,0.1-1.6,0.3c-2.2-2.8-5.6-4.6-9.5-4.6c-6.6,0-12,5.3-12,11.7
		c0,1,0.1,1.9,0.4,2.8c-3.8,1.6-6.3,4.4-6.3,7.6c0,1,0.3,2,0.7,3c-1.7,0.7-2.8,2.1-2.8,3.8c0,2.2,2.1,4,4.7,4.3v0.1h54.3
		c0.2,0.1,0.4,0.1,0.7,0.1c0,0,0,0,0,0c0.3,0,0.6,0.1,0.9,0.1c3.2,0,5.8-2.6,5.8-5.8C1093.9,396.2,1092,393.9,1089.4,393.3
		L1089.4,393.3z M1089.4,393.3"/>
</g>
<g>
	<path class="st11" d="M954.9,363.4h-8.5L932,404h37.1L954.9,363.4z M954.9,363.4"/>
	<path class="st11" d="M974,417.5h-46.7l-6.7,19h60L974,417.5z M974,417.5"/>
	<path class="st11" d="M1004.3,471.7H993l-7.7-21.8l-69.6,0.1l-7.6,21.7H896v10.8h108.3V471.7z M1004.3,471.7"/>
</g>
<polygon class="st11" points="724.4,302.4 802.4,302.4 802.4,276 708.9,276 708.9,302.4 "/>
<polygon class="st5" points="794.7,280.1 783.8,298.4 772.6,298.4 783.5,280.1 "/>
<polygon class="st5" points="766.2,280.1 755.3,298.4 744.1,298.4 755,280.1 "/>
<polygon class="st5" points="737.7,280.1 726.8,298.4 715.7,298.4 726.6,280.1 "/>
<path d="M737.7,280.1"/>
<g>
	<rect x="207.3" y="395.1" class="st9" width="23.9" height="19.1"/>
	<rect x="293.3" y="395.1" class="st9" width="23.9" height="19.1"/>
	<path class="st9" d="M285.6,395.1h-16.4c-0.1,0-0.1,0-0.2,0h-13.4c-0.1,0-0.1,0-0.2,0H239v-3.5h-5.2v26.1h5.2v-3.5h2.4v0h5
		c5.4,0.3,4.8,5.6,4.8,5.6v6.5H249h-1.3v5.2h1.3h26.5h1.3v-5.2h-1.3h-2.2v-6.5c0,0-0.5-5.4,4.8-5.6h3.8v0h3.5v3.5h5.2v-26.1h-5.2
		V395.1z"/>
</g>
<polygon class="st6" points="525.5,426.1 518.7,415.6 518.7,426.1 "/>
<g>
	<polygon points="518.7,395.1 505.7,395.1 518.7,415.6 	"/>
</g>
<polygon class="st6" points="422.7,316.5 455.6,316.5 444.8,299.5 422.7,299.5 "/>
<polygon class="st6" points="422.7,281.9 433.6,281.9 424,266.9 422.7,266.9 "/>
<path class="st6" d="M668.2,438c0-16.5-7.4-26.5-19.6-26.5c-7.7,0-13.6,4.2-16.9,11.4l25.8,40.4C664.3,459.5,668.2,450.7,668.2,438z
	"/>
<polygon class="st6" points="561.4,312.7 573.1,330.9 574.1,269.4 "/>
<g>
	<path class="st12" d="M630.9,424.7c-1.4,3.8-2.2,8.4-2.2,13.6c0,17,7.4,27.1,20,27.1c2.6,0,5-0.5,7.2-1.4c0.5-0.2,1-0.5,1.5-0.7
		l-25.8-40.4C631.4,423.5,631.1,424.1,630.9,424.7z"/>
</g>
<g>
	<polygon class="st12" points="558.1,446.1 548.2,446.1 538.2,446.1 558.1,477.4 558.1,461.7 	"/>
</g>
<g>
	<polygon class="st12" points="550,294.8 537.1,274.4 546.2,309 	"/>
</g>
<g>
	<path class="st12" d="M686,509.7L668,479.9c-0.5,0.2-1,0.5-1.5,0.7c-5.1,2.2-11,3.4-17.5,3.4c-26.8,0-43.5-19-43.5-45.5
		c0-13.4,4.7-25.2,12.9-33.4c0.4-0.4,0.8-0.8,1.2-1.2l-43.6-68.4l0,0H573l0.1-4.7v0l-11.6-18.3v0l-6.7,23h-17.4L518,269.5l0.7,66.1
		h-21.3v-86.8h23.3l-43.4-68.2c-1.1-1.8-3.9-2.1-6.1-0.7c-2.2,1.4-3.1,4-1.9,5.8l0.3,0.5c-0.9,0-1.9,0.2-2.9,0.8
		c-2.2,1.4-3.1,4-1.9,5.8l2.8,4.3c-1.2-1.8-3.9-2.1-6.1-0.7c-2.2,1.4-3.1,4-1.9,5.8l-2.8-4.3c-1.1-1.8-3.9-2.1-6.1-0.7
		c-2.2,1.4-3.1,4-1.9,5.8l1.4,2.2c-1.1-1.8-3.9-2.1-6.1-0.7c-2.2,1.4-3.1,4-1.9,5.8l1.4,2.2c-1.1-1.8-3.9-2.1-6.1-0.7
		c-2.2,1.4-3.1,4-1.9,5.8l-2.8-4.3c-1.1-1.8-3.9-2.1-6.1-0.7c-2.2,1.4-3.1,4-1.9,5.8l2.8,4.3c-1.2-1.8-3.9-2.1-6.1-0.7
		c-1,0.6-1.7,1.5-2.1,2.4l-2.6-4.1c-1.1-1.8-3.9-2.1-6.1-0.7c-2.2,1.4-3.1,4-1.9,5.8l1.4,2.2c-1.1-1.8-3.9-2.1-6.1-0.7
		c-2.2,1.4-3.1,4-1.9,5.8l9.9,15.6h57.3v18.3H424l9.6,15h32.1v17.6h-20.9l10.8,17h15.2v19h-3.1l38.2,60v-0.3h9.8h13v20.4v10.6h6.7
		h22.7v-31h22.8V482h-9.9h-10l50,80.2c1.1,1.8,3.9,2.1,6.1,0.7c2.2-1.4,3.1-4,1.9-5.8l-1.4-2.2c1.1,1.8,3.9,2.1,6.1,0.7
		c1-0.6,1.7-1.5,2.1-2.4l2.6,4.1c1.1,1.8,3.9,2.1,6.1,0.7c2.2-1.4,3.1-4,1.9-5.8l-2.8-4.3c1.1,1.8,3.9,2.1,6.1,0.7
		c2.2-1.4,3.1-4,1.9-5.8l2.8,4.3c1.1,1.8,3.9,2.1,6.1,0.7c2.2-1.4,3.1-4,1.9-5.8l-1.4-2.2c1.1,1.8,3.9,2.1,6.1,0.7
		c2.2-1.4,3.1-4,1.9-5.8l-1.4-2.2c1.1,1.8,3.9,2.1,6.1,0.7c2.2-1.4,3.1-4,1.9-5.8l2.8,4.3c0.8,1.3,2.5,1.8,4.2,1.4
		c0.6-0.1,1.3-0.4,1.9-0.8c0.7-0.4,1.3-1,1.7-1.7c0.9-1.3,1-2.9,0.2-4.1l-2.8-4.3c1.1,1.8,3.9,2.1,6.1,0.7c2.2-1.4,3.1-4,1.9-5.8
		l-0.3-0.5c0.9,0,1.9-0.2,2.8-0.8c1.1-0.7,1.8-1.6,2.2-2.6C686.6,511.8,686.6,510.6,686,509.7z"/>
</g>
<g>
	<polygon points="574.1,269.4 573.1,330.9 576.1,335.6 594.5,335.6 594.5,248.8 562.4,248.8 550,294.8 550,294.8 561.4,312.7 	"/>
</g>
<g>
	<polygon points="537.1,274.4 530.3,248.8 520.7,248.8 520.7,248.8 537.1,274.4 	"/>
</g>
<g>
	<polygon points="573.1,330.9 573,335.6 576.1,335.6 576.1,335.6 573.1,330.9 	"/>
</g>
<polygon class="st5" points="497.4,335.6 518.7,335.6 518,269.5 537.3,335.6 554.7,335.6 561.4,312.7 561.4,312.7 550,294.8 
	546.2,309 537.1,274.4 520.7,248.8 497.4,248.8 "/>
<g>
	<polygon points="505.9,482 528.7,482 528.7,446.1 538.2,446.1 505.9,395.5 	"/>
</g>
<g>
	<polygon points="558.1,482 561.1,482 558.1,477.4 	"/>
</g>
<polygon class="st5" points="580.9,482 580.9,395.1 558.1,395.1 558.1,426.1 535.5,426.1 528.7,426.1 528.7,415.6 528.7,395.1 
	515.7,395.1 505.9,395.1 505.9,395.5 538.2,446.1 548.2,446.1 558.1,446.1 558.1,461.7 558.1,477.4 561.1,482 571.1,482 "/>
<g>
	<path d="M648.6,411.5c12.2,0,19.6,10,19.6,26.5c0,12.7-3.9,21.5-10.8,25.3l10.6,16.7c14.8-7.1,23.3-22.7,23.3-41.2
		c0-27.9-16.7-45.6-42.6-45.6c-11.8,0-21.8,4.1-29.2,10.9l12,18.9C635,415.6,640.8,411.5,648.6,411.5z"/>
</g>
<path class="st5" d="M605.5,438.6c0,26.5,16.7,45.5,43.5,45.5c6.5,0,12.3-1.2,17.5-3.4c0.5-0.2,1-0.5,1.5-0.7l-10.6-16.7
	c-0.5,0.3-1,0.5-1.5,0.7c-2.2,0.9-4.5,1.4-7.2,1.4c-12.6,0-20-10.1-20-27.1c0-5.2,0.8-9.7,2.2-13.6c0.2-0.7,0.5-1.3,0.8-1.9
	l-12-18.9c-0.4,0.4-0.8,0.8-1.2,1.2C610.2,413.4,605.5,425.2,605.5,438.6z"/>
<g>
	<polygon points="422.7,316.5 422.7,299.5 444.8,299.5 433.6,281.9 422.7,281.9 422.7,266.9 424,266.9 412.4,248.8 412.3,248.6 
		400.2,248.6 400.2,335.5 467.7,335.5 455.6,316.5 	"/>
</g>
<polygon class="st5" points="470.8,316.5 455.6,316.5 467.7,335.5 470.8,335.5 "/>
<polygon class="st5" points="465.7,299.5 465.7,281.9 433.6,281.9 444.8,299.5 "/>
<polygon class="st5" points="424,266.9 469.7,266.9 469.7,248.6 412.3,248.6 412.4,248.8 "/>
<path class="st6" d="M-117.1-655.9c0-15.9-5.5-27-15-31.3c4,16.7,8.1,33.6,12,50C-118.2-642.2-117.1-648.5-117.1-655.9z"/>
<path class="st6" d="M-94.2-854l-0.4-1.5l-3.3-13.8h-4.8C-100.2-865-97.4-859.8-94.2-854z"/>
<path class="st6" d="M-452.8-863.1c0.4,0.9,0.8,1.8,1.2,2.8l0.1-7.4L-452.8-863.1z"/>
<polygon class="st6" points="887.7,878.9 886.1,875.3 893.2,901.4 889,884.1 "/>
<path class="st6" d="M-580.8-808.3h1.9l-5.1-21.3h-8.5C-590-825-586-817.7-580.8-808.3z"/>
<path class="st6" d="M-619.3-659.1h5.6c4,0,7.9-0.1,11.1-1.2l-14.5-26.1h-8.8C-623.7-677.2-621.5-668.1-619.3-659.1z"/>
<polygon class="st6" points="-604.8,-851.7 -589.4,-851.7 -594,-870.6 -615.3,-870.6 "/>
<path class="st6" d="M-152.4-771.6c4.4,18.4,9.3,38.6,14.3,59.4c8,0.4,15.3,2.2,21.6,5.2L-152.4-771.6z"/>
<path class="st6" d="M-632.6-714.2c0.4,1.5,0.7,3,1.1,4.5h1.4L-632.6-714.2z"/>
<path class="st6" d="M-697.4,576c1.7,3,3.1,5.6,4.3,7.7l-5.4-12.3C-698.1,572.9-697.8,574.4-697.4,576z"/>
<path class="st2" d="M-628.5-829.6v21.3h47.7c-5.2-9.4-9.2-16.7-11.7-21.3H-628.5z"/>
<polygon class="st2" points="-628.5,-870.6 -628.5,-851.7 -604.8,-851.7 -615.3,-870.6 "/>
<polygon class="st2" points="-280.6,-685.5 -280.6,-668.8 -243.7,-602.3 -243.7,-685.5 "/>
<path class="st2" d="M318.1-569.2c0,0-97.2-219.6-96.8-219.9l-32.7-74.1l-2.2-5.1v0l-8.8-19.8v0L147-957.5l-32.6-73.9
	c-0.9-1.9-3.5-2.7-5.9-1.6c-2.4,1.1-3.6,3.5-2.8,5.5l0.2,0.5c-0.9-0.1-1.9-0.1-3,0.4c-2.4,1.1-3.6,3.5-2.7,5.5l0,0
	c0.6,1.2-0.4,2.6-1.7,2.6c-0.7,0-1.4,0.2-2.1,0.5c-0.7,0.3-1.3,0.7-1.8,1.2c-0.9,1-2.5,0.8-3.1-0.5v0c-0.9-1.9-3.5-2.7-5.9-1.6
	c-2.4,1.1-3.6,3.5-2.8,5.5l1,2.3c-0.9-1.9-3.5-2.7-5.9-1.6c-2.4,1.1-3.6,3.5-2.8,5.5l1,2.3c-0.9-1.9-3.5-2.6-5.9-1.6
	c-0.7,0.3-1.3,0.7-1.8,1.2c-0.9,1-2.5,0.8-3.1-0.5l0,0c-0.9-1.9-3.5-2.6-5.9-1.6c-2.4,1.1-3.6,3.5-2.8,5.5l0,0
	c0.5,1.2-0.3,2.6-1.6,2.6c-0.7,0-1.5,0.2-2.2,0.5c-0.3,0.1-0.6,0.3-0.8,0.4c-0.9,0.6-2.2,0.2-2.7-0.8l-0.9-2
	c-0.9-1.9-3.5-2.7-5.9-1.6c-2.4,1.1-3.6,3.5-2.8,5.5l1,2.3c-0.9-1.9-3.5-2.7-5.9-1.6c-2.4,1.1-3.6,3.5-2.8,5.5l7.1,16.2l0.1,0.6
	l-0.1-0.5l0.2,0.5l0.7,5.2l2.8,19.9l3.2,22.3l0.2-0.5l0.1-0.3l14.2,101.9l3.3,24.2c-12.3-28.1-20.1-46.2-20-46.3l-9-20.5v83.6H7.6
	l2-72.6l-37.2,72.6h-31.3v-109.1h27.7l-1.1,72.6L5-893.6h19.1l-12.4-28.2l-2.2-5.1v0l-8.8-19.8v0L-30-1016l-17.5-39.6l-7.3-29.8
	c-0.5-2.1-3-3.2-5.5-2.6c-0.5,0.1-0.9,0.3-1.3,0.5l-1.1-2.4c-0.9-1.9-3.5-2.7-5.9-1.6c-2.4,1.1-3.6,3.5-2.8,5.5l0.2,0.5
	c-0.9-0.1-1.9-0.1-3,0.4c-2.4,1.1-3.6,3.5-2.7,5.5l0,0c0.6,1.2-0.4,2.6-1.7,2.6c-0.6,0-1.2,0.2-1.8,0.4c-1-1.3-2.9-1.9-4.9-1.4
	c-0.6,0.2-1.2,0.4-1.7,0.8c-1.2-0.7-2.9-0.7-4.4,0c-1.9,0.9-3.1,2.6-3,4.2c-0.9,0.3-1.7,0.9-2.2,1.5c-0.8,0-1.6,0.1-2.4,0.5
	c-1.2,0.6-2.1,1.5-2.6,2.5c-0.3,0-0.5,0.1-0.8,0.1c-0.7,0.2-1.4,0.5-2,0.9c-1.1,0.8-2.6,0.3-3-1l0,0c-0.5-2.1-3-3.2-5.5-2.6
	c-2.5,0.6-4.2,2.8-3.7,4.9l0,0c0,0.1,0,0.2,0,0.3c-0.3,0.1-0.6,0.2-0.9,0.3c-0.9,0.4-1.6,1-2.1,1.6c-0.4,0-0.9,0-1.4,0.2
	c-0.3,0.1-0.6,0.2-0.9,0.3c-1,0.4-2.2-0.2-2.5-1.3l-0.5-2.1c-0.5-2.1-3-3.2-5.5-2.6c-2.5,0.6-4.2,2.8-3.7,4.9l0.6,2.5
	c-0.5-2.1-3-3.2-5.5-2.6c-2.5,0.6-4.2,2.8-3.7,4.9l1.2,4.9c-0.2,0.1-0.3,0.1-0.5,0.2c-0.3,0.1-0.5,0.3-0.8,0.4l-3.1-11.5l2.8,11.7
	c-1.7,1.2-2.4,3.2-1.7,4.8l6.5,14.6l2.5,10.3l16.8,69.1l0.1-0.3l15,62h28.4v24.2h-22.5l3.3,13.8l0.4,1.5c-3.2-5.8-6-10.9-8.5-15.3
	h-5v84.9h-28.8v-84.9h-32.3v-24.2h52.9l-35.2-62.9l-2.7-4.9v0l-10.6-18.9v0l-37-66.1l-30.4-54.4l-4.7-19.3c-0.5-2.1-3-3.2-5.5-2.6
	c-2.3,0.6-3.8,2.4-3.8,4.2c-0.4,0.1-0.7,0.3-1.1,0.5c-0.3,0.1-0.5,0.3-0.7,0.5c-0.3,0-0.6,0-1,0.1c-2.5,0.6-4.2,2.8-3.7,4.9l0,0
	c0.3,1.3-0.8,2.5-2.1,2.3c-0.7-0.1-1.4-0.1-2.2,0.1c-0.7,0.2-1.4,0.5-2,0.9c-1.1,0.8-2.6,0.3-3-1c-0.5-2.1-3-3.2-5.5-2.6
	c-2.6,0.6-4.2,2.8-3.7,4.9l0.6,2.5c-0.5-2.1-3-3.2-5.5-2.6c-2.6,0.6-4.2,2.8-3.7,4.9l0.6,2.5c-0.5-2.1-3-3.2-5.5-2.6
	c-0.7,0.2-1.4,0.5-2,0.9c-1.1,0.8-2.6,0.3-3-1l0,0c-0.5-2.1-3-3.2-5.5-2.6c-2.5,0.6-4.2,2.8-3.7,4.9l0,0c0.3,1.3-0.8,2.5-2.1,2.3
	c-0.7-0.1-1.5-0.1-2.2,0.1c-0.3,0.1-0.6,0.2-0.9,0.3c-1,0.4-2.2-0.2-2.5-1.3l-0.5-2.1c-0.5-2.1-3-3.2-5.5-2.6
	c-2.5,0.6-4.2,2.8-3.7,4.9l0.6,2.5c-0.5-2.1-3-3.2-5.5-2.6c-2.5,0.6-4.2,2.8-3.7,4.9l4.4,17.9l1.2,4.9c-0.4,1-0.3,2.1,0.2,3l1,1.8
	l2.8,11.5l4.2,17.3l4.9,20.2l4.8,19.5l5.3,21.9l16.8,69.1l0.1-0.3l3.4,14.2h24.6v38.9h36.9v-38.9h28.7v109.1h-28.7v-45.1h-36.9v45.1
	h-28.7v-69.8l-31.9-56.9l-2.7-4.9v0l-10.6-18.9v0l-37-66.1l-17.2-30.6l-5.8-40.8l-2.9-11.6c-0.3-2.1-2.7-3.5-5.3-3.1
	c-2.6,0.4-4.4,2.4-4.1,4.5l0.1,0.6c-0.9-0.4-1.9-0.6-2.9-0.4c-2.6,0.4-4.4,2.4-4.1,4.5l0,0c0.2,1.3-1,2.4-2.4,2.1
	c-0.7-0.2-1.4-0.2-2.2-0.1c-0.8,0.1-1.4,0.4-2,0.7c-1.2,0.7-2.7,0-2.8-1.3c-0.3-2.1-2.7-3.5-5.3-3.1c-2.6,0.4-4.4,2.4-4.1,4.5
	l0.4,2.5c-0.3-2.1-2.7-3.5-5.3-3.1c-2.6,0.4-4.4,2.4-4.1,4.5l0.4,2.5c-0.3-2.1-2.7-3.5-5.2-3.1c-0.8,0.1-1.4,0.4-2,0.7
	c-1.2,0.7-2.7,0.1-2.8-1.3l0,0c-0.3-2.1-2.7-3.5-5.3-3.1c-2.6,0.4-4.4,2.4-4.1,4.5l0,0c0.2,1.3-1,2.4-2.3,2.1
	c-0.7-0.2-1.4-0.2-2.2-0.1c-0.3,0-0.6,0.1-0.9,0.2c-1.1,0.3-2.2-0.4-2.4-1.5l-0.3-2.2c-0.3-2.1-2.7-3.5-5.3-3.1
	c-2.6,0.4-4.4,2.4-4.1,4.5l0.4,2.5c-0.3-2.1-2.7-3.5-5.2-3.1c-1.4,0.2-2.5,0.9-3.3,1.8l1.7,12.3l2.8,19.9l0.5,3.4
	c-0.9,1.3-1.2,2.8-0.5,4.1l1.3,2.2c-1-1.9-3.8-2.3-6-1c-2.3,1.3-3.3,3.8-2.2,5.7l9,16.1l3,5.4l8,56.8l0.1-0.3l7.2,51.8h25.5v109.1
	h-27l1.3-75.8c-0.4-1-0.8-2-1.2-2.8l-23,78.6h-21.9l-24.2-83.1l0.9,83.1h-26.8v-109.1h41.4l19.9,75.7l20.4-75.7h0.1l-21.7-49.2
	l-2.2-5.1v0l-8.8-19.8l0,0l-30.6-69.3l-24.7-56l-6.3-25.9c-0.5-2.1-3-3.2-5.5-2.6c-2.6,0.6-4.2,2.8-3.7,4.9l0.1,0.6
	c-0.9-0.3-1.9-0.4-3-0.1c-2.5,0.6-4.2,2.8-3.7,4.9l0,0c0.3,1.3-0.8,2.5-2.1,2.3c-0.7-0.1-1.4-0.1-2.2,0.1c-0.7,0.2-1.4,0.5-2,0.9
	c-1.1,0.8-2.6,0.3-3-1c-0.5-2.1-3-3.2-5.5-2.6c-2.6,0.6-4.2,2.8-3.7,4.9l0.6,2.5c-0.5-2.1-3-3.2-5.5-2.6c-2.6,0.6-4.2,2.8-3.7,4.9
	l0.6,2.5c-0.5-2.1-3-3.2-5.5-2.6c-0.7,0.2-1.4,0.5-2,0.9c-1.1,0.8-2.6,0.3-3-1l0,0c-0.5-2.1-3-3.2-5.5-2.6c-2.5,0.6-4.2,2.8-3.7,4.9
	l0,0c0.3,1.3-0.8,2.5-2.1,2.3c-0.7-0.1-1.5-0.1-2.2,0.1c-0.3,0.1-0.6,0.2-0.9,0.3c-1,0.4-2.2-0.2-2.5-1.3l-0.5-2.1
	c-0.5-2.1-3-3.2-5.5-2.6c-2.5,0.6-4.2,2.8-3.7,4.9l0.6,2.5c-0.5-2.1-3-3.2-5.5-2.6c-2.5,0.6-4.2,2.8-3.7,4.9l4.4,17.9l0.4,1.5
	c-0.8,1.1-1,2.4-0.5,3.6l3,6.8l2.2,9.1l4.2,17.3l4.9,20.2l4.8,19.5l5.3,21.9l16.8,69.1l0.1-0.3l3.1,13h30.1v23H-594l4.6,18.9h14.9
	v22.1h-9.6l5.1,21.3h10.9v23.9h-88.7v-109.1h28.6l-7-12.4l-2.7-4.9v0l-10.6-18.9v0l-37-66.1l-26.2-46.9l-3.7-15.1l-2.2-5.8
	c-0.5-2.1-3-3.2-5.5-2.6c-0.5,0.1-1,0.4-1.5,0.6l-0.4-0.7c-1-1.9-3.8-2.3-6-1c-2.3,1.3-3.3,3.8-2.2,5.7l0.3,0.5
	c-0.9,0-1.9,0.1-2.9,0.7c-2.3,1.3-3.3,3.8-2.2,5.7l0,0c0.2,0.4,0.3,0.9,0.2,1.3c-0.6,0.2-1.2,0.5-1.7,0.8c-1.1,0.8-2.6,0.3-3-1
	c-0.5-2.1-3-3.2-5.5-2.6c-2.6,0.6-4.2,2.8-3.7,4.9l0,0c-0.2,0.1-0.4,0.2-0.6,0.3c-0.1,0-0.2,0.1-0.2,0.2c-1.1-0.7-2.5-1-4-0.6
	c-2.6,0.6-4.2,2.8-3.7,4.9l0.6,2.5c-0.5-2.1-3-3.2-5.5-2.6c-0.7,0.2-1.4,0.5-2,0.9c-1.1,0.8-2.6,0.3-3-1l0,0c-0.5-2.1-3-3.2-5.5-2.6
	c-2.5,0.6-4.2,2.8-3.7,4.9l0,0c0.3,1.3-0.8,2.5-2.1,2.3c-0.7-0.1-1.5-0.1-2.2,0.1c-0.3,0.1-0.6,0.2-0.9,0.3c-1,0.4-2.2-0.2-2.5-1.3
	l-0.5-2.1c-0.5-2.1-3-3.2-5.5-2.6c-2.5,0.6-4.2,2.8-3.7,4.9l0.6,2.5c-0.5-2.1-3-3.2-5.5-2.6c-2.5,0.6-4.2,2.8-3.7,4.9l1.7,3.8
	l2.6,10.8c-1.9,1.4-2.6,3.6-1.6,5.3l5.2,9.3l3.9,16.1l16.8,69.1l0.1-0.3l11.1,45.8v-15.3h48c25,0,43.1,9.8,43.1,36.8
	c0,24.5-15.8,35.9-38.5,35.9h-24.1v36.5h-28.5v-63.9c-3.1-5.8-4.9-9-4.8-9.1l-39.2-71l-2.7-4.9v0l-10.5-19v0l-36.6-66.3l-35.6-64.4
	l-1.2-3.8c-0.3-1-1.1-1.8-2.1-2.2l-0.2-0.4c-1-1.9-3.7-2.3-6-1c-2.3,1.3-3.3,3.8-2.3,5.7l0.3,0.5c-0.9,0-1.9,0.1-2.9,0.6
	c-2.3,1.3-3.3,3.8-2.2,5.7l0,0c0.2,0.3,0.2,0.6,0.2,0.8c-0.3,0.7-1.1,1.3-2,1.2c-0.7-0.1-1.4,0-2.1,0.2c-0.7,0.2-1.4,0.6-1.9,1
	c-1,0.9-2.6,0.5-3-0.8c-0.6-2-3.2-3-5.7-2.3c-2.5,0.8-4,3.1-3.4,5.1l0.8,2.5c-0.6-2-3.2-3.1-5.7-2.3c-2.5,0.8-4,3.1-3.4,5.1l0.8,2.5
	c-0.6-2-3.2-3-5.7-2.3c-0.7,0.2-1.4,0.6-1.9,1c-1,0.9-2.6,0.5-3-0.8l0,0c-0.6-2-3.2-3-5.7-2.3c-2.5,0.8-4,3.1-3.4,5.1l0,0
	c0.4,1.3-0.6,2.5-1.9,2.4c-0.7-0.1-1.5,0-2.2,0.2c-0.3,0.1-0.6,0.2-0.9,0.3c-1,0.5-2.2,0-2.6-1.1l-0.7-2.1c-0.6-2-3.2-3-5.7-2.3
	c-2.5,0.8-4,3.1-3.4,5.1l0.8,2.5c-0.6-2-3.2-3-5.7-2.3c-2.5,0.8-4,3.1-3.4,5.1l5.4,17.6l6.4,20.7l5.2,17l6.1,19.9l5.9,19.2l6.6,21.6
	l20.9,68l0.1-0.3l2.2,7.3l-32-58.4c-1-1.9-3.7-2.3-6-1.1c-2.3,1.3-3.3,3.8-2.3,5.7l0.3,0.5c-0.9,0-1.9,0.1-2.9,0.6
	c-2.3,1.3-3.3,3.8-2.3,5.7l0,0c0.7,1.2-0.1,2.6-1.5,2.8c-0.7,0.1-1.4,0.3-2.1,0.7c-0.7,0.4-1.2,0.8-1.7,1.4c-0.8,1.1-2.5,1-3.1-0.2
	c-1-1.9-3.7-2.3-6-1.1c-2.3,1.3-3.3,3.8-2.3,5.7l1.2,2.2c-1-1.9-3.7-2.4-6-1.1c-2.3,1.3-3.3,3.8-2.3,5.7l1.2,2.2
	c-1-1.9-3.7-2.3-6-1.1c-0.7,0.4-1.2,0.8-1.7,1.4c-0.8,1.1-2.5,1-3.1-0.2l0,0c-1-1.9-3.7-2.3-6-1.1c-2.3,1.3-3.3,3.8-2.3,5.7l0,0
	c0.6,1.2-0.1,2.6-1.4,2.7c-0.7,0.1-1.4,0.3-2.1,0.7c-0.3,0.2-0.5,0.3-0.8,0.5c-0.9,0.7-2.2,0.4-2.8-0.6l-1.1-1.9
	c-1-1.9-3.7-2.3-6-1.1c-2.3,1.3-3.3,3.8-2.3,5.7l1.2,2.2c-1-1.9-3.7-2.3-6-1.1c-2.3,1.3-3.3,3.8-2.3,5.7l8.9,16.2l10.4,19l8.5,15.6
	l10,18.3l9.7,17.6l10.8,19.8l34.1,62.4l0-0.3l49.3,90.3l99.6,182.7l1.6,5.2c0.6,2,3.2,3,5.7,2.3c2.5-0.8,4-3.1,3.4-5.1l-0.8-2.5
	c0.6,2,3.2,3,5.7,2.3c1.1-0.3,2-1,2.6-1.8l1.5,4.6c0.6,2,3.2,3,5.7,2.3c2.5-0.8,4-3.1,3.4-5.1l-1.5-4.9c0.6,2,3.2,3,5.7,2.3
	c2.5-0.8,4-3.1,3.4-5.1l1.5,4.9c0.6,2,3.2,3,5.7,2.3c2.5-0.8,4-3.1,3.4-5.1l-0.8-2.4c0.6,2,3.2,3,5.7,2.3c2.5-0.8,4-3.1,3.4-5.1
	l-0.8-2.4c0.6,2,3.2,3,5.7,2.3c2.5-0.8,4-3.1,3.4-5.1l1.5,4.9c0.5,1.5,1.9,2.4,3.7,2.5c0.7,0,1.3,0,2-0.2c0.8-0.2,1.5-0.7,2.1-1.2
	c1.2-1,1.8-2.5,1.3-3.9l-1.5-4.9c0.6,2,3.2,3,5.7,2.3c2.5-0.8,4-3.1,3.4-5.1l-0.2-0.6c0.9,0.2,1.9,0.3,3,0c1.2-0.4,2.2-1.1,2.8-2
	c0.7-1,0.9-2.1,0.6-3.1c0,0-19.9-64.9-43-140.7h-19.7v-109.1h87.3v23h-59v18.9h53.9v22.1h-53.9v21.3h60.4v23.9h-55.3L-672-488
	l3.4,14.2c0.5,2.1,3,3.2,5.5,2.6c0.1,0,0.1-0.1,0.2-0.1l2.2,4c1,1.9,3.7,2.3,6,1c2.3-1.3,3.3-3.8,2.3-5.7l-1.3-2.2
	c0.6,1.1,1.9,1.7,3.2,1.8c0.7,1.8,3,2.7,5.3,2.1c0.8-0.2,1.4-0.5,2-0.9l0,0.1c1,1.9,3.7,2.3,6,1c2.3-1.3,3.3-3.8,2.3-5.7l-1.2-2.2
	c0.4-0.2,0.7-0.4,1-0.7c0.8,0.2,1.6,0.1,2.5-0.1l0.3,1.3c0.5,2.1,3,3.2,5.5,2.6c2.1-0.5,3.6-2.1,3.7-3.8c0.8,0,1.7-0.3,2.5-0.7
	c0.1-0.1,0.2-0.1,0.3-0.2c0.7,0.1,1.4,0.1,2.1-0.1c2.5-0.6,4.2-2.8,3.7-4.9l-0.3-1.2c0.1,0,0.2,0,0.3-0.1c1,1.3,2.9,1.9,4.9,1.4
	c2.5-0.6,4.2-2.8,3.7-4.9l1.2,5c0.4,1.5,1.8,2.5,3.5,2.7c0.7,0.1,1.3,0.1,2-0.1c0.8-0.2,1.5-0.6,2.1-1.1c1.2-1,1.9-2.4,1.6-3.8
	l-1.2-5c0.5,2.1,3,3.2,5.5,2.6c2.5-0.6,4.2-2.8,3.7-4.9l-0.1-0.6c0.9,0.3,1.9,0.4,3,0.2c1.2-0.3,2.2-1,2.9-1.8
	c0.7-0.9,1.1-2,0.8-3.1c0,0-1-4-2.7-11.1c0.4-0.4,0.7-0.9,0.9-1.4c0.4-1.1,0.5-2.2-0.1-3.2c0,0-1.2-2.2-3.5-6.3
	c-6-24.8-16.4-67.9-27.9-115.8h-15.8v36.5h-28.5v-109.1h26.8c-0.4-1.5-0.7-3-1.1-4.5l2.5,4.5h19.7c25,0,43.1,9.8,43.1,36.8
	c0,18.7-9.2,29.7-23.5,33.9l92.3,166.1l4,16.7c0.5,2.1,3,3.2,5.5,2.6c0.3-0.1,0.7-0.2,1-0.4l4.6,8.2c1,1.9,3.7,2.3,6,1
	c2.3-1.3,3.3-3.8,2.2-5.7l-1.3-2.2c1,1.9,3.7,2.3,6,1c1-0.6,1.7-1.4,2.2-2.3l2.4,4.2c1,1.9,3.7,2.3,6,1c2.3-1.3,3.3-3.8,2.2-5.7
	l-2.5-4.5c0.8,1.5,2.8,2.1,4.7,1.6c0.9,0.3,1.9,0.3,2.9,0.1c1.3-0.3,2.4-1.1,3.1-2.1l0.1,0.2c1,1.9,3.7,2.3,6,1
	c2.3-1.3,3.3-3.8,2.2-5.7l0,0c0.2-0.2,0.4-0.5,0.5-0.7c1.3,0.5,2.9,0.4,4.3-0.4c1-0.6,1.8-1.4,2.2-2.3c1.6-0.8,2.6-2.3,2.5-3.9
	c0,0,0,0,0.1,0l1.1,4.5c0.4,1.5,1.8,2.5,3.5,2.7c0.7,0.1,1.3,0.1,2-0.1c0.8-0.2,1.5-0.6,2.1-1.1c1.2-1,1.9-2.4,1.6-3.8l-0.6-2.4
	c0.4,0.1,0.9,0.1,1.4,0c0.1,0,0.3-0.1,0.4-0.1c0.9,0.3,2,0.4,3.1,0.1c2.5-0.6,4.2-2.8,3.7-4.9l-0.1-0.6c0.9,0.3,1.9,0.4,3,0.2
	c1.2-0.3,2.2-1,2.9-1.8c0.7-0.9,1.1-2,0.8-3.1c0,0-0.5-2.2-1.5-6.4c0.1,0,0.2-0.1,0.3-0.1c1.1-0.6,1.9-1.5,2.3-2.5
	c0.4-1.1,0.5-2.2-0.1-3.2c0,0-2.5-4.5-7-12.5c-4.8-19.8-12.1-50-20.4-84.5l34.3,78.4l3.6,25.9c0.3,2.1,2.7,3.5,5.2,3.1
	c1.3-0.2,2.4-0.8,3.2-1.6l6.5,14.8c0.9,1.9,3.5,2.6,5.9,1.6c2.4-1.1,3.6-3.5,2.8-5.5l-1-2.3c0.9,2,3.5,2.7,5.9,1.6
	c1.1-0.5,1.9-1.2,2.4-2.1l2,4.4c0.9,1.9,3.5,2.7,5.9,1.6c2.4-1.1,3.6-3.5,2.8-5.5l-2.1-4.7c0.9,1.9,3.5,2.7,5.9,1.6
	c2.4-1.1,3.6-3.5,2.8-5.5l2.1,4.7c0.9,1.9,3.5,2.7,5.9,1.6c2.4-1.1,3.6-3.5,2.7-5.5l-1-2.3c0.9,1.9,3.5,2.7,5.9,1.6
	c1.6-0.7,2.6-2,2.9-3.4c0.4,0.3,0.9,0.5,1.4,0.6c0.6,0.1,1.3,0.2,2,0.1c0.8-0.1,1.6-0.4,2.2-0.8c1.3-0.8,2.1-2.2,1.9-3.7l-0.2-1.7
	c0.2-0.6,0.3-1.2,0.3-1.7c0.1,0.1,0.3,0.3,0.4,0.4l1.4,3.2c0.6,1.4,2.2,2.1,3.9,2c0.7,0,1.3-0.2,2-0.5c0.8-0.3,1.4-0.8,1.9-1.4
	c1.1-1.2,1.4-2.7,0.9-4l-1.4-3.2c0.4,0.1,0.8,0.2,1.3,0.2c1.1,0.4,2.6,0.4,3.9-0.2c2.4-1.1,3.6-3.5,2.8-5.5l-0.2-0.6
	c0.9,0.1,1.9,0.1,2.9-0.4c1.2-0.5,2-1.4,2.5-2.3c0.5-1,0.7-2.2,0.2-3.2c0,0-4.4-10-11.7-26.7c-7.6-54.3-22.6-162.5-34-244.8
	c-2.4,0.3-5,0.5-7.6,0.5c-33.7,0-54.7-23.9-54.7-57.2c0-32.3,21.6-57.2,54.4-57.2c32.5,0,53.5,22.2,53.5,57.3
	c0,29.4-16.9,52.8-45.2,56.5l9.2,16.5l31.2,56.2h88.3v109.1h-27.7l66.4,119.4l5.7,23.7c0.5,2.1,3,3.2,5.5,2.6
	c1.1-0.3,1.9-0.8,2.6-1.5l3,5.3c1,1.9,3.7,2.3,6,1c1.8-1,2.8-2.8,2.6-4.4c1,0.6,2.4,0.8,3.9,0.5c2-0.5,3.4-1.9,3.7-3.5l1.4,2.5
	c1,1.9,3.7,2.3,6,1c2.3-1.3,3.3-3.8,2.2-5.7l-2.2-3.9c0,0,0-0.1,0-0.1c0.3,0.4,0.8,0.7,1.3,0.9l0.4,1.6c0.5,2.1,3,3.2,5.5,2.6
	c2.5-0.6,4.2-2.8,3.7-4.9l-0.1-0.5c1.2,1.4,3.6,1.7,5.7,0.6c0.3-0.2,0.6-0.4,0.9-0.6c1.6-1,2.5-2.6,2.1-4.3l-0.4-1.6
	c0.1,0,0.1,0.1,0.2,0.1c0.9,1.5,3,2.2,5.1,1.7c2.5-0.6,4.2-2.8,3.7-4.9l1.2,5c0.4,1.5,1.8,2.5,3.5,2.7c0.7,0.1,1.3,0.1,2-0.1
	c0.8-0.2,1.5-0.6,2.1-1.1c1.2-1,1.9-2.4,1.6-3.8l-1.2-5c0.5,2.1,3,3.2,5.5,2.6c2.5-0.6,4.2-2.8,3.7-4.9l-0.1-0.6
	c0.9,0.3,1.9,0.4,3,0.2c1.2-0.3,2.2-1,2.9-1.8c0.7-0.9,1.1-2,0.8-3.1c0,0-0.9-3.6-2.4-10c0.4-0.1,0.8-0.3,1.2-0.5
	c1.1-0.6,1.9-1.5,2.3-2.5c0.4-1.1,0.5-2.2-0.1-3.2c0,0-3.2-5.7-8.7-15.6c-5.4-22.5-13.2-54.9-22-91.1c-7.9,4.9-17.5,7.8-28.6,7.8
	c-33.7,0-54.7-23.9-54.7-57.2c0-32.3,21.6-57.2,54.4-57.2c1.1,0,2.2,0,3.3,0.1c-5-20.8-9.8-41-14.3-59.4l35.9,64.6
	c17.7,8.5,28.3,26.7,28.5,51.3l18.7,33.6c5.4-0.8,9.4-5.3,10-25l1.8-62.7h80.1v109.1H-6v-84.9h-24.2l-1.4,42.4
	c-0.9,26.1-10.8,39.9-25.2,43.6l41.6,74.8l4.6,19.3c0.5,2.1,3,3.2,5.5,2.6c0.6-0.2,1.1-0.4,1.6-0.7l3.9,7c1,1.9,3.7,2.3,6,1
	c2.3-1.3,3.3-3.8,2.2-5.7l-1.3-2.2c0.8,1.4,2.5,2,4.3,1.6c0.4,0,0.8-0.1,1.2-0.2c1.4-0.3,2.4-1.1,3.1-2.1l2,3.6c1,1.9,3.7,2.3,6,1
	c2.3-1.3,3.3-3.8,2.2-5.7l-2.5-4.5c0.5,1,1.5,1.5,2.6,1.7c1,1.3,2.9,1.9,4.9,1.4c1.7-0.4,3-1.6,3.5-2.9c1.2,1.5,3.6,1.8,5.7,0.6
	c1.9-1.1,2.9-3,2.6-4.7c0.3-0.5,0.5-1.1,0.5-1.6c1.2,0.3,2.6,0.2,3.9-0.6c0.1-0.1,0.3-0.2,0.4-0.3c0.2,0,0.4,0,0.6-0.1
	c2.5-0.6,4.2-2.8,3.7-4.9l1.2,5c0.4,1.5,1.8,2.5,3.5,2.7c0.7,0.1,1.3,0.1,2-0.1c0.8-0.2,1.5-0.6,2.1-1.1c1.2-1,1.9-2.4,1.6-3.8l-1-4
	c0.1,0,0.2,0,0.2,0c1,1.4,3,2.1,5,1.5c2.5-0.6,4.2-2.8,3.7-4.9l-0.1-0.6c0.9,0.3,1.9,0.4,3,0.2c1.2-0.3,2.2-1,2.9-1.8
	c0.7-0.9,1.1-2,0.8-3.1c0,0-0.7-2.7-1.9-7.7c0.2-0.1,0.4-0.2,0.6-0.3c1.1-0.6,1.9-1.5,2.3-2.5c0.1-0.3,0.2-0.5,0.2-0.8l31.5,71.9
	l0.2,1.5c0.1,0.9,0.7,1.7,1.4,2.3l7.5,17.1c0.9,1.9,3.5,2.6,5.9,1.6c2.4-1.1,3.6-3.5,2.8-5.5l-1-2.3c0.9,2,3.5,2.7,5.9,1.6
	c1.1-0.5,1.9-1.2,2.4-2.1l2,4.4c0.9,1.9,3.5,2.7,5.9,1.6c2.4-1.1,3.6-3.5,2.8-5.5l-2.1-4.7c0.9,1.9,3.5,2.7,5.9,1.6
	c2.4-1.1,3.6-3.5,2.8-5.5l2.1,4.7c0.9,1.9,3.5,2.7,5.9,1.6c2.4-1.1,3.6-3.5,2.7-5.5l-1-2.3c0.9,1.9,3.5,2.7,5.9,1.6
	c2.4-1.1,3.6-3.5,2.7-5.5l-1-2.3c0.9,1.9,3.5,2.7,5.9,1.6c0.3-0.1,0.6-0.3,0.8-0.5c0.5,0.4,1.2,0.7,1.9,0.9c0.6,0.1,1.3,0.2,2,0.1
	c0.3,0,0.6-0.1,0.9-0.2c0.8,0.7,1.9,1,3.1,1c0.7,0,1.3-0.2,2-0.5c0.8-0.3,1.4-0.8,1.9-1.4c1.1-1.2,1.4-2.7,0.9-4l-0.6-1.3
	c0.2,0,0.3,0,0.5,0c1.3-0.2,2.3-0.8,3.1-1.5c0.3-0.1,0.5-0.2,0.8-0.3c1.4-0.6,2.3-1.7,2.8-2.8c0.1,0,0.2,0,0.3,0
	c1.3-0.2,2.3-0.8,3.1-1.5c0.8-0.8,1.3-1.9,1.1-3c0,0,0-0.1,0-0.3c0.3-0.3,0.6-0.7,0.8-1c0.5-1,0.7-2.2,0.2-3.2c0,0-0.8-1.9-2.3-5.3
	c-3.6-25.8-13.8-98.8-24.2-173.7l61.7,140.3c0.9,1.9,3.5,2.6,5.9,1.6c2.4-1.1,3.6-3.5,2.8-5.5l-1-2.3c0.9,2,3.5,2.7,5.9,1.6
	c1.1-0.5,1.9-1.2,2.4-2.1l2,4.4c0.9,1.9,3.5,2.7,5.9,1.6c2.4-1.1,3.6-3.5,2.8-5.5l-2.1-4.7c0.9,1.9,3.5,2.7,5.9,1.6
	c2.4-1.1,3.6-3.5,2.8-5.5l2.1,4.7c0.9,1.9,3.5,2.7,5.9,1.6c2.4-1.1,3.6-3.5,2.7-5.5l-1-2.3c0.9,1.9,3.5,2.7,5.9,1.6
	c2.4-1.1,3.6-3.5,2.7-5.5l-1-2.3c0.9,1.9,3.5,2.7,5.9,1.6c2.4-1.1,3.6-3.5,2.7-5.5l2.1,4.7c0.6,1.4,2.2,2.1,3.9,2
	c0.7,0,1.3-0.2,2-0.5c0.8-0.3,1.4-0.8,1.9-1.4c1.1-1.2,1.4-2.7,0.9-4l-2.1-4.7c0.9,1.9,3.5,2.7,5.9,1.6c2.4-1.1,3.6-3.5,2.8-5.5
	l-0.2-0.6c0.9,0.1,1.9,0.1,2.9-0.4c1.2-0.5,2-1.4,2.5-2.3C318.4-567,318.6-568.2,318.1-569.2z M-135.9-1029.7l1.6,3.6l1.3,5.2
	l4.2,17.3L-135.9-1029.7z M-783.7-685.5H-816v84.9h-28.8v-84.9h-32.3v-24.2h93.5V-685.5z M-455.5-600.6h-28.7v-45.1H-521v45.1h-28.7
	v-109.1h28.7v38.9h36.9v-38.9h28.7V-600.6z M-381.9-712.3c32.5,0,53.5,22.2,53.5,57.3c0,32-20.1,57-53.2,57
	c-33.7,0-54.7-23.9-54.7-57.2C-436.3-687.5-414.7-712.3-381.9-712.3z M70.6-558.1c-0.4-1.5-0.7-3.1-1.1-4.7l5.4,12.3
	C73.7-552.5,72.3-555.1,70.6-558.1z M140-600.6h-28.4v-40.3h-10.1l-28.8,40.3H36.6l33.9-41.7c-14.4-3.7-25-15.3-25-32.8
	c0-23.3,17.5-34.6,37.5-34.6h57V-600.6z"/>
<path class="st2" d="M-477.2-296.4c-0.1-0.8,0.1-1.5,0.5-2.2l-2.4-12.5L-477.2-296.4z"/>
<path class="st2" d="M-475.5-292l-0.9-7c-0.1,0.1-0.2,0.3-0.3,0.5L-475.5-292z"/>
<path class="st2" d="M-476.4-299C-476.4-299-476.4-299.1-476.4-299l-1.1-8.4L-476.4-299z"/>
<path class="st8" d="M-765.6-878.3v30c3.1,5.7,7.5,13.8,13,23.9L-765.6-878.3z"/>
<path class="st13" d="M-737.1-784.4v-36.5h24.1c22.7,0,38.5-11.3,38.5-35.9c0-27-18.1-36.8-43.1-36.8h-48v15.3l13,53.9
	c-5.5-10.1-9.9-18.2-13-23.9v63.9H-737.1z"/>
<path class="st13" d="M-737.1-870.2h18.4c10,0,16.5,3.2,16.5,13.8c0,12.7-9,13.5-18.8,13.5h-16.1V-870.2z"/>
<path class="st8" d="M-595.5-835.2c0,0,1,2,3,5.6h8.5l-5.3-22.1h-15.3L-595.5-835.2z"/>
<path class="st13" d="M-577.5-802.4l-1-4.2l-0.4-1.8h-1.9C-579.8-806.4-578.7-804.5-577.5-802.4z"/>
<polygon class="st8" points="-594,-870.6 -599.5,-893.5 -628.2,-893.5 -615.3,-870.6 "/>
<path class="st13" d="M-656.8-784.4h88.7v-23.9h-10.9l0.4,1.8l1,4.2c-1.1-2.1-2.2-4-3.3-5.9h-47.7v-21.3h35.9c-2-3.6-3-5.6-3-5.6
	l-9.2-16.5h-23.7v-18.9h13.1l-12.9-23h-28.6V-784.4z"/>
<polygon class="st13" points="-569.5,-870.6 -569.5,-893.5 -599.5,-893.5 -594,-870.6 "/>
<polygon class="st13" points="-574.5,-829.6 -574.5,-851.7 -589.4,-851.7 -584.1,-829.6 "/>
<path class="st8" d="M-452.8-863.1l1.3-4.6l-0.1,7.4c1.8,4.1,4.2,9.7,7.2,16.5l-6.9-49.8h-14.7l11,25
	C-455.1-868.5-454.3-866.6-452.8-863.1z"/>
<path class="st13" d="M-486.6-817.8l-19.9-75.7h-41.4v109.1h26.8l-0.9-83.1l24.2,83.1h21.9l23-78.6c-1.5-3.5-2.3-5.5-2.3-5.5l-11-25
	h-0.1L-486.6-817.8z"/>
<path class="st13" d="M-451.6-860.3l-1.3,75.8h27v-109.1h-25.5l6.9,49.8C-447.4-850.5-449.8-856.1-451.6-860.3z"/>
<path class="st13" d="M-344.1-782.3c0.1,0,0.3,0,0.4,0l-0.5-0.9C-344.2-782.9-344.2-782.6-344.1-782.3z"/>
<path class="st13" d="M-298.5-838.8c0-35.1-21-57.3-53.5-57.3c-32.8,0-54.4,24.8-54.4,57.2c0,33.3,21,57.2,54.7,57.2
	c2.6,0,5.1-0.2,7.6-0.5c0-0.3-0.1-0.6-0.1-1l0.5,0.9C-315.4-786-298.5-809.5-298.5-838.8z"/>
<path class="st13" d="M-352.2-805.3c-15.8,0-25.1-12.7-25.1-34c0-20.7,9.7-33.7,25-33.7c15.3,0,24.7,12.6,24.7,33.3
	C-327.7-818-336.7-805.3-352.2-805.3z"/>
<path class="st8" d="M-255.3-810.6l-20-82.9h-4v39.3l7.7,13.8C-271.7-840.3-265.5-829-255.3-810.6z"/>
<path class="st13" d="M-250.7-784.4v-45.1h36.9v45.1h28.7v-109.1h-28.7v38.9h-36.9v-38.9h-24.6l20,82.9
	c-10.2-18.4-16.4-29.7-16.3-29.8l-7.7-13.8v69.8H-250.7z"/>
<path class="st8" d="M-102.6-869.3h4.8l-5.8-24.2h-12.2l4.4,7.8C-111.6-885.7-108.3-879.7-102.6-869.3z"/>
<path class="st13" d="M-168.8-869.3h32.3v84.9h28.8v-84.9h5c-5.7-10.4-9-16.4-8.9-16.4l-4.4-7.8h-52.9V-869.3z"/>
<polygon class="st13" points="-75.3,-869.3 -75.3,-893.5 -103.7,-893.5 -97.8,-869.3 "/>
<polygon class="st8" points="35.3,-893.5 24.1,-893.5 35.3,-868 "/>
<polygon class="st13" points="-32.2,-820.9 -31.2,-893.5 -58.9,-893.5 -58.9,-784.4 -27.6,-784.4 9.6,-857.1 7.6,-784.4 
	35.3,-784.4 35.3,-868 24.1,-893.5 5,-893.5 "/>
<polygon class="st13" points="-877.2,-685.5 -844.8,-685.5 -844.8,-600.6 -816,-600.6 -816,-685.5 -783.7,-685.5 -783.7,-709.7 
	-877.2,-709.7 "/>
<path class="st8" d="M-747.4-600.6h13.7l-31-56.5C-758.9-638.1-753-619-747.4-600.6z"/>
<path class="st13" d="M-678.4-624.5h-60.4v-21.3h53.9v-22.1h-53.9v-18.9h59v-23h-87.3v109.1h19.7c-5.6-18.5-11.5-37.6-17.3-56.5
	l31,56.5h55.3V-624.5z"/>
<path class="st8" d="M-617.2-686.4l-12.9-23.3h-1.4c1.9,7.7,3.7,15.5,5.6,23.3H-617.2z"/>
<path class="st8" d="M-613.8-659.1h-5.6c1.8,7.4,3.6,14.8,5.3,22.1h8.2c5.4,0,10.4-0.7,14.9-2l-11.8-21.3
	C-605.8-659.2-609.7-659.1-613.8-659.1z"/>
<path class="st13" d="M-567.3-672.9c0-27-18.1-36.8-43.1-36.8h-19.7l12.9,23.3h5.7c10,0,16.5,3.2,16.5,13.8c0,7.5-3.1,10.8-7.7,12.3
	l11.8,21.3C-576.5-643.2-567.3-654.2-567.3-672.9z"/>
<path class="st13" d="M-629.8-659.1v-27.3h3.9c-1.9-7.8-3.7-15.6-5.6-23.3h-26.8v109.1h28.5V-637h15.8c-1.7-7.3-3.5-14.6-5.3-22.1
	H-629.8z"/>
<polygon class="st13" points="-484.1,-670.7 -521,-670.7 -521,-709.7 -549.7,-709.7 -549.7,-600.6 -521,-600.6 -521,-645.6 
	-484.1,-645.6 -484.1,-600.6 -455.5,-600.6 -455.5,-709.7 -484.1,-709.7 "/>
<path class="st13" d="M-436.3-655.1c0,33.3,21,57.2,54.7,57.2c33.1,0,53.2-25,53.2-57c0-35.1-21-57.3-53.5-57.3
	C-414.7-712.3-436.3-687.4-436.3-655.1z"/>
<path class="st13" d="M-382.2-689.1c15.3,0,24.7,12.6,24.7,33.3c0,21.8-9,34.5-24.5,34.5c-15.8,0-25.1-12.7-25.1-34
	C-407.2-676.1-397.5-689.1-382.2-689.1z"/>
<polygon class="st8" points="-309.3,-709.7 -309.3,-600.6 -280.6,-600.6 -280.6,-668.8 -303.4,-709.7 "/>
<polygon class="st13" points="-243.7,-600.6 -242.7,-600.6 -243.7,-602.3 "/>
<polygon class="st13" points="-215,-709.7 -303.4,-709.7 -280.6,-668.8 -280.6,-685.5 -243.7,-685.5 -243.7,-602.3 -242.7,-600.6 
	-215,-600.6 "/>
<path class="st8" d="M-138.2-712.2c2,8.3,4,16.6,6,25c9.5,4.3,15,15.4,15,31.3c0,7.3-1,13.6-3,18.8c2.6,10.7,5.1,21.2,7.6,31.4
	c15.7-9.8,24.5-28,24.5-49.2c0-0.2,0-0.4,0-0.7l-28.5-51.3C-122.9-710-130.2-711.8-138.2-712.2z"/>
<path class="st13" d="M-116.5-707l28.5,51.3C-88.2-680.3-98.8-698.5-116.5-707z"/>
<path class="st13" d="M-141.6-621.4c-15.8,0-25.1-12.7-25.1-34c0-20.7,9.7-33.7,25-33.7c3.6,0,6.8,0.7,9.6,2c-2-8.4-4-16.8-6-25
	c-1.1-0.1-2.2-0.1-3.3-0.1c-32.8,0-54.4,24.8-54.4,57.2c0,33.3,21,57.2,54.7,57.2c11.1,0,20.7-2.8,28.6-7.8
	c-2.5-10.2-5-20.7-7.6-31.4C-124-627-131.4-621.4-141.6-621.4z"/>
<path class="st8" d="M-71.6-621.9c-3.1,0-6.6-0.6-8.4-1.4v22.8c3.2,1.1,10.7,2,15,2c2.9,0,5.6-0.3,8.2-1L-69.3-622
	C-70.1-621.9-70.8-621.9-71.6-621.9z"/>
<path class="st13" d="M-31.6-643l1.4-42.4H-6v84.9h28.7v-109.1h-80.1l-1.8,62.7c-0.5,19.7-4.6,24.2-10,25l12.6,22.6
	C-42.4-603.1-32.5-616.9-31.6-643z"/>
<path class="st13" d="M45.4-675c0,17.5,10.6,29.1,25,32.8l-33.9,41.7h36.2l28.8-40.3h10.1v40.3H140v-109.1H83
	C62.9-709.7,45.4-698.3,45.4-675z"/>
<path class="st13" d="M111.6-687.6v26.2H90.5c-9.3,0-17.2-2-17.2-13.5c0-8.6,5.7-12.7,17.5-12.7H111.6z"/>
<polygon class="st13" points="-138.5,-701 -131.5,-685.5 -119,-630.5 -142.5,-616 -157,-616.5 -183.5,-658.5 -173,-682 "/>
<polygon class="st13" points="-618.5,-653.3 -629.5,-702.3 -637.3,-691.5 -644.3,-654 "/>
<path class="st13" d="M-597-650l-26.3-47.8l30.3,6.5c0,0,7.8,10.3,7.8,11.5S-597-650-597-650z"/>
<g>
	<line class="st14" x1="1091.7" y1="481.6" x2="1176.9" y2="392.4"/>
</g>
<g>
	<line class="st14" x1="324.8" y1="480.8" x2="235.6" y2="565.9"/>
</g>
<g>
	<line class="st14" x1="394.3" y1="480.8" x2="282" y2="588"/>
</g>
<g>
	<line class="st14" x1="437.3" y1="480.8" x2="376" y2="540"/>
</g>
<g>
	<line class="st14" x1="507.1" y1="480.8" x2="417.9" y2="565.9"/>
</g>
<g>
	<line class="st14" x1="989.2" y1="335.1" x2="1057" y2="265"/>
</g>
<g>
	<line class="st14" x1="988.7" y1="249.6" x2="1073.9" y2="160.4"/>
</g>
<g>
	<line class="st14" x1="592.7" y1="249.6" x2="677.9" y2="160.4"/>
</g>
<g>
	<line class="st14" x1="719.2" y1="249.6" x2="755" y2="214"/>
</g>
<g>
	<line class="st14" x1="562.7" y1="249.6" x2="621" y2="189"/>
</g>
<g>
	<path d="M1624.5,248.8h38.2c19.9,0,34.3,7.8,34.3,29.3c0,19.5-12.6,28.5-30.6,28.5h-19.2v29h-22.7V248.8z M1659.9,289
		c7.8,0,15-0.6,15-10.7c0-8.4-5.2-11-13.2-11h-14.6V289H1659.9z"/>
</g>
<g>
	<path d="M1968.9,337.7c-26.8,0-43.5-19-43.5-45.5c0-25.7,17.2-45.5,43.3-45.5c25.9,0,42.6,17.7,42.6,45.6
		C2011.2,317.8,1995.3,337.7,1968.9,337.7z M1968.4,265.1c-12.2,0-19.9,10.4-19.9,26.8c0,17,7.4,27.1,20,27.1
		c12.3,0,19.5-10.1,19.5-27.4C1988.1,275.1,1980.6,265.1,1968.4,265.1z"/>
</g>
<g>
	<path d="M2106.8,335.6H2084v-35.9h-29.4v35.9h-22.8v-86.8h22.8v31h29.4v-31h22.8V335.6z"/>
</g>
<g>
	<path class="st15" d="M2177.9,268.1v67.6H2155v-67.6H2177.9z"/>
</g>
<g>
	<path d="M2303,335.6h-22.1l1.6-57.8l-29.6,57.8H2228v-86.8h22.1l-0.9,57.8l29.6-57.8h24.1V335.6z"/>
</g>
<g>
	<path d="M1706.8,413.4h-47v15h42.9V446h-42.9v17h48.1v19h-70.6v-86.8h69.5V413.4z"/>
</g>
<g>
	<path d="M1728.2,395.1h38.2c19.9,0,34.3,7.8,34.3,29.3c0,19.5-12.6,28.5-30.6,28.5h-19.1v29h-22.7V395.1z M1763.7,435.4
		c7.8,0,15-0.6,15-10.7c0-8.4-5.2-11-13.2-11h-14.6v21.7H1763.7z"/>
</g>
<g>
	<path d="M2101,482h-22.8v-67.6h-29.4V482H2026v-86.8h75V482z"/>
</g>
<g>
	<path d="M2166.7,484.1c-26.8,0-43.5-19-43.5-45.5c0-25.7,17.2-45.5,43.3-45.5c25.9,0,42.6,17.7,42.6,45.6
		C2209,464.2,2193,484.1,2166.7,484.1z M2166.2,411.5c-12.2,0-19.9,10.4-19.9,26.8c0,17,7.4,27.1,20,27.1
		c12.3,0,19.5-10.1,19.5-27.4C2185.8,421.5,2178.4,411.5,2166.2,411.5z"/>
</g>
<g>
	<path d="M2382.6,482v-32.1h-8.1l-22.9,32.1h-28.8l27-33.2c-11.5-2.9-19.9-12.2-19.9-26.1c0-18.5,13.9-27.6,29.9-27.6h45.4V482
		H2382.6z M2382.6,412.7H2366c-9.4,0-13.9,3.3-13.9,10.1c0,9.1,6.2,10.7,13.7,10.7h16.8V412.7z"/>
</g>
<path d="M2216.5,240.1h-5.4v-5.4h5.4v-5.4h-30.2l-16.2-14.1c0.1-0.2,0.2-0.5,0.3-0.8c1.2-3.1,1.1-5.8,3.4-6c2.7-0.2,2.5-4-1.3-3.9
	c-1.4,0-3,0.6-4.8,3.2c-0.7,1-1.2,2.4-2.1,3.5l-1.8-1.6c-0.7-0.6-1.7-0.6-2.4,0l-2.5,2.2c-1.4-1.3-2-3.5-2-6c0-2.8,1.5-6.1,4.3-6.1
	c2.8,0,4.7,0.6,4.7,0.6v-12.7h-1.8v-45.1h-3.6v45.1h-1.8v8.4c-5.4,0.3-7.4,4.5-7.4,10.5c0,3.5,0.6,7.1,2.8,9.5l-15.1,13.2h-23.6v5.4
	h3.6v5.4h-3.6v5.4h101.1V240.1z M2157.2,218.2c1.2,0.5,2.7,0.8,4.4,0.8c2.9,0,4.8-0.4,6.1-1.2l13.1,11.4h-36.3L2157.2,218.2z
	 M2157.2,218.2"/>
<path d="M2025.9,627.4l5.2-3.6l1.3-0.9l-18.7-27.5l48.4-33c2.2-1.5,3.4-3.3,3.7-5.4c0.4-3.1-1.6-5.6-1.6-5.6l-15.7-23.1
	c-0.1-0.2-1.9-4.4-6.2-4.4c-1.6,0-3.3,0.6-5.1,1.8l-5.7,3.8c0.4,0.4,0.7,0.8,1.1,1.2c1.3,1.6,2.6,3.3,3.8,5c0.3,0.4,0.6,0.9,0.9,1.3
	l4-2.7l14.2,20.9l-48.4,33c-2.1,1.4-3.3,3.2-3.6,5.2c-0.5,3.2,1.5,5.8,1.5,5.8l19.6,28.8L2025.9,627.4z M2025.9,627.4"/>
<path d="M1941.8,602.4c-0.3-0.4-0.6-0.8-0.9-1.3c-1.2-1.8-2.3-3.7-3.2-5.5c-0.2-0.5-0.4-1-0.7-1.5l-8.4,5.7l5.3,7.9L1941.8,602.4z
	 M1941.8,602.4"/>
<path d="M2028.6,637.1l26.1,38.3c0,0,3.6,3.5,8.7-0.1c5.1-3.7,2-7,2-7l-27.4-38.6l5.2-3.6l-2.8-4.6l-7.5,5.1l-5.2,3.6l-7.8,5.3
	l3.6,5.2L2028.6,637.1z M2028.6,637.1"/>
<path class="st16" d="M2031.1,539.6L2031.1,539.6c-1.2-1.8-2.5-3.5-3.9-5c-3-3.5-6.1-6.4-7.9-8l-80,54.5c0.5,2.3,1.6,6.4,3.7,10.9
	c0.9,1.8,1.9,3.7,3.1,5.5c4.3,6.3,10.1,10.6,12.8,12.3l80-54.5C2037.7,552,2035.1,545.4,2031.1,539.6L2031.1,539.6z M2031.1,539.6"
	/>
<rect id="SVGID_2_" x="1918.7" y="492.5" class="st6" width="150" height="185.9"/>
<g>
	<rect x="1565.6" y="435.1" width="20.9" height="48.7"/>
</g>
<g>
	<rect x="1520.4" y="395.1" class="st15" width="23.9" height="19.1"/>
</g>
<g>
	<rect x="1606.4" y="395.1" class="st15" width="23.9" height="19.1"/>
</g>
<g>
	<path class="st15" d="M1598.7,395.1h-16.4c-16.7,0-16.7,15.7-16.7,15.7v15.7h-3.5v5.2h27.9v-5.2h-3.5v-6.5c0,0-0.6-5.7,5.2-5.7h7
		v3.5h5.2v-26.1h-5.2V395.1z M1598.7,395.1"/>
</g>
<g>
	<path class="st15" d="M1552.1,391.6h-5.2v26.1h5.2v-3.5h7c5.8,0,5.2,5.7,5.2,5.7v6.5h-3.5v5.2h27.9v-5.2h-3.5v-15.7
		c0,0,0-15.7-16.7-15.7h-16.4V391.6z M1552.1,395.1"/>
</g>
<g>
	<path d="M2404,342.4l-10.7,21.6l-3.6-1.8l10.7-21.6L2404,342.4z M2417.4,325.1l-1,1.8c-1.2,2.1-3.5,6.4-6.8,7.3l-3.1,6.4l-6-3
		l3.1-6.3c-1.5-3.4,0.7-8.4,1.6-10.6l0.6-1.5L2417.4,325.1z M2412.3,328.5l-6.1-3c-0.8,2.5-0.9,5,0.9,5.8
		C2409,332.3,2410.7,330.9,2412.3,328.5L2412.3,328.5z M2379.7,384.9c1.7-0.2,5.7-0.3,8.9,2.1c0.6,0.4,1.1,1,1.6,1.5l2.2-4.4l1-2
		l3.3-6.7c0.5-0.9-1.7-2.7-5.2-4.7l1.8-3.7l-6-3l-1.8,3.7c-1.9-0.7-4.5-1.6-5.9-1.6c-0.5,0-0.8,0.1-0.9,0.3l-4.5,9.1l-2.1,4.2
		l-0.1,0.2c-0.1,0.3-0.1,0.7-0.1,1.1C2374.5,381.3,2377.2,382.3,2379.7,384.9L2379.7,384.9z M2402.5,393.3c0-2.1-2-2.8-3.6-2.8
		c-0.4,0-0.8,0.1-1.2,0.3c0.6-0.9,0.9-1.9,0.9-3.1c0-2.5-1.3-4.4-3-4.9l-3.5,7.1c-0.1,0.2-0.3,0.4-0.5,0.6c0.7,1.5,1.2,3.3,1.3,5.4
		c0.1,0.8-0.5,1.4-1.3,1.5c0,0-0.1,0-0.1,0c-0.7,0-1.3-0.6-1.4-1.3c-0.3-3.3-1.3-5.7-3.3-7.1c-3.1-2.3-7.4-1.5-7.4-1.5l-0.8,0.2
		l-0.5-0.6c-6.8-7.2-13.8-1.1-14.1-0.8c-0.6,0.5-1.5,0.5-2-0.1c-0.5-0.6-0.5-1.5,0.1-2c1.5-1.4,4.2-3,7.3-3.3
		c-0.1-0.6,0-1.2,0.2-1.7l0.7-1.3l1.2-2.5c-0.9,0-0.8,0.1-1.6,0.3c-2.2-2.8-5.6-4.6-9.5-4.6c-6.6,0-12,5.3-12,11.7
		c0,1,0.1,1.9,0.4,2.8c-3.8,1.6-6.3,4.4-6.3,7.6c0,1,0.3,2,0.7,3c-1.7,0.7-2.8,2.1-2.8,3.8c0,2.2,2.1,4,4.7,4.3v0.1h54.3
		c0.2,0.1,0.4,0.1,0.7,0.1c0,0,0,0,0,0c0.3,0,0.6,0.1,0.9,0.1c3.2,0,5.8-2.6,5.8-5.8C2407,396.2,2405.1,393.9,2402.5,393.3
		L2402.5,393.3z M2402.5,393.3"/>
</g>
<g>
	<path class="st17" d="M2268,363.4h-8.5l-14.3,40.6h37.1L2268,363.4z M2268,363.4"/>
	<path class="st17" d="M2287,417.5h-46.7l-6.7,19h60L2287,417.5z M2287,417.5"/>
	<path class="st17" d="M2317.4,471.7h-11.2l-7.7-21.8l-69.6,0.1l-7.6,21.7h-12.2v10.8h108.3V471.7z M2317.4,471.7"/>
</g>
<polygon class="st18" points="2037.5,302.4 2115.5,302.4 2115.5,276 2021.9,276 2021.9,302.4 "/>
<polygon class="st5" points="2107.7,280.1 2096.8,298.4 2085.6,298.4 2096.5,280.1 "/>
<polygon class="st5" points="2079.3,280.1 2068.4,298.4 2057.2,298.4 2068.1,280.1 "/>
<polygon class="st5" points="2050.8,280.1 2039.9,298.4 2028.7,298.4 2039.6,280.1 "/>
<path d="M2050.8,280.1"/>
<g>
	<rect x="1554.5" y="395.1" class="st15" width="40.7" height="19.2"/>
</g>
<polygon class="st6" points="1838.5,426.1 1831.8,415.6 1831.8,426.1 "/>
<g>
	<polygon points="1831.8,395.1 1818.8,395.1 1831.8,415.6 	"/>
</g>
<polygon class="st6" points="1735.8,316.5 1768.6,316.5 1757.8,299.5 1735.8,299.5 "/>
<polygon class="st6" points="1735.8,281.9 1746.6,281.9 1737.1,266.9 1735.8,266.9 "/>
<path class="st6" d="M1981.3,438c0-16.5-7.4-26.5-19.6-26.5c-7.7,0-13.6,4.2-16.9,11.4l25.8,40.4
	C1977.4,459.5,1981.3,450.7,1981.3,438z"/>
<polygon class="st6" points="1874.5,312.7 1886.2,330.9 1887.2,269.4 "/>
<path class="st16" d="M1943.9,424.7c-1.4,3.8-2.2,8.4-2.2,13.6c0,17,7.4,27.1,20,27.1c2.6,0,5-0.5,7.2-1.4c0.5-0.2,1-0.5,1.5-0.7
	l-25.8-40.4C1944.4,423.5,1944.2,424.1,1943.9,424.7z"/>
<polygon class="st16" points="1871.2,446.1 1861.3,446.1 1851.3,446.1 1871.2,477.4 1871.2,461.7 "/>
<polygon class="st16" points="1863.1,294.8 1850.1,274.4 1859.2,309 "/>
<path class="st16" d="M1999.1,509.7l-17.9-29.8c-0.5,0.2-1,0.5-1.5,0.7c-5.1,2.2-11,3.4-17.5,3.4c-26.8,0-43.5-19-43.5-45.5
	c0-13.4,4.7-25.2,12.9-33.4c0.4-0.4,0.8-0.8,1.2-1.2l-43.6-68.4l0,0h-3.1l0.1-4.7v0l-11.6-18.3v0l-6.7,23h-17.4l-19.3-66.1l0.7,66.1
	h-21.3v-86.8h23.3l-43.4-68.2c-1.1-1.8-3.9-2.1-6.1-0.7c-2.2,1.4-3.1,4-1.9,5.8l0.3,0.5c-0.9,0-1.9,0.2-2.9,0.8
	c-2.2,1.4-3.1,4-1.9,5.8l2.8,4.3c-1.2-1.8-3.9-2.1-6.1-0.7c-2.2,1.4-3.1,4-1.9,5.8l-2.8-4.3c-1.1-1.8-3.9-2.1-6.1-0.7
	c-2.2,1.4-3.1,4-1.9,5.8l1.4,2.2c-1.1-1.8-3.9-2.1-6.1-0.7c-2.2,1.4-3.1,4-1.9,5.8l1.4,2.2c-1.1-1.8-3.9-2.1-6.1-0.7
	c-2.2,1.4-3.1,4-1.9,5.8l-2.8-4.3c-1.1-1.8-3.9-2.1-6.1-0.7c-2.2,1.4-3.1,4-1.9,5.8l2.8,4.3c-1.2-1.8-3.9-2.1-6.1-0.7
	c-1,0.6-1.7,1.5-2.1,2.4l-2.6-4.1c-1.1-1.8-3.9-2.1-6.1-0.7c-2.2,1.4-3.1,4-1.9,5.8l1.4,2.2c-1.1-1.8-3.9-2.1-6.1-0.7
	c-2.2,1.4-3.1,4-1.9,5.8l9.9,15.6h57.3v18.3h-45.7l9.6,15h32.1v17.6h-20.9l10.8,17h15.2v19h-3.1l38.2,60v-0.3h9.8h13v20.4v10.6h6.7
	h22.7v-31h22.8V482h-9.9h-10l50,80.2c1.1,1.8,3.9,2.1,6.1,0.7c2.2-1.4,3.1-4,1.9-5.8l-1.4-2.2c1.1,1.8,3.9,2.1,6.1,0.7
	c1-0.6,1.7-1.5,2.1-2.4l2.6,4.1c1.1,1.8,3.9,2.1,6.1,0.7c2.2-1.4,3.1-4,1.9-5.8l-2.8-4.3c1.1,1.8,3.9,2.1,6.1,0.7
	c2.2-1.4,3.1-4,1.9-5.8l2.8,4.3c1.1,1.8,3.9,2.1,6.1,0.7c2.2-1.4,3.1-4,1.9-5.8l-1.4-2.2c1.1,1.8,3.9,2.1,6.1,0.7
	c2.2-1.4,3.1-4,1.9-5.8l-1.4-2.2c1.1,1.8,3.9,2.1,6.1,0.7c2.2-1.4,3.1-4,1.9-5.8l2.8,4.3c0.8,1.3,2.5,1.8,4.2,1.4
	c0.6-0.1,1.3-0.4,1.9-0.8c0.7-0.4,1.3-1,1.7-1.7c0.9-1.3,1-2.9,0.2-4.1l-2.8-4.3c1.1,1.8,3.9,2.1,6.1,0.7c2.2-1.4,3.1-4,1.9-5.8
	l-0.3-0.5c0.9,0,1.9-0.2,2.8-0.8c1.1-0.7,1.8-1.6,2.2-2.6C1999.7,511.8,1999.7,510.6,1999.1,509.7z"/>
<g>
	<polygon points="1887.2,269.4 1886.2,330.9 1889.1,335.6 1907.5,335.6 1907.5,248.8 1875.5,248.8 1863.1,294.8 1863.1,294.8 
		1874.5,312.7 	"/>
</g>
<g>
	<polygon points="1850.1,274.4 1843.4,248.8 1833.8,248.8 1833.8,248.8 1850.1,274.4 	"/>
</g>
<g>
	<polygon points="1886.2,330.9 1886.1,335.6 1889.1,335.6 1889.1,335.6 1886.2,330.9 	"/>
</g>
<polygon class="st5" points="1810.5,335.6 1831.8,335.6 1831.1,269.5 1850.3,335.6 1867.8,335.6 1874.5,312.7 1874.5,312.7 
	1863.1,294.8 1859.2,309 1850.1,274.4 1833.8,248.8 1810.5,248.8 "/>
<g>
	<polygon points="1819,482 1841.8,482 1841.8,446.1 1851.3,446.1 1819,395.5 	"/>
</g>
<g>
	<polygon points="1871.2,482 1874.1,482 1871.2,477.4 	"/>
</g>
<polygon class="st5" points="1894,482 1894,395.1 1871.2,395.1 1871.2,426.1 1848.5,426.1 1841.8,426.1 1841.8,415.6 1841.8,395.1 
	1828.8,395.1 1819,395.1 1819,395.5 1851.3,446.1 1861.3,446.1 1871.2,446.1 1871.2,461.7 1871.2,477.4 1874.1,482 1884.1,482 "/>
<g>
	<path d="M1961.6,411.5c12.2,0,19.6,10,19.6,26.5c0,12.7-3.9,21.5-10.8,25.3l10.6,16.7c14.8-7.1,23.3-22.7,23.3-41.2
		c0-27.9-16.7-45.6-42.6-45.6c-11.8,0-21.8,4.1-29.2,10.9l12,18.9C1948,415.6,1953.9,411.5,1961.6,411.5z"/>
</g>
<path class="st5" d="M1918.6,438.6c0,26.5,16.7,45.5,43.5,45.5c6.5,0,12.3-1.2,17.5-3.4c0.5-0.2,1-0.5,1.5-0.7l-10.6-16.7
	c-0.5,0.3-1,0.5-1.5,0.7c-2.2,0.9-4.5,1.4-7.2,1.4c-12.6,0-20-10.1-20-27.1c0-5.2,0.8-9.7,2.2-13.6c0.2-0.7,0.5-1.3,0.8-1.9
	l-12-18.9c-0.4,0.4-0.8,0.8-1.2,1.2C1923.3,413.4,1918.6,425.2,1918.6,438.6z"/>
<g>
	<polygon points="1735.8,316.5 1735.8,299.5 1757.8,299.5 1746.6,281.9 1735.8,281.9 1735.8,266.9 1737.1,266.9 1725.5,248.8 
		1725.4,248.6 1713.2,248.6 1713.2,335.5 1780.8,335.5 1768.6,316.5 	"/>
</g>
<polygon class="st5" points="1783.9,316.5 1768.6,316.5 1780.8,335.5 1783.9,335.5 "/>
<polygon class="st5" points="1778.7,299.5 1778.7,281.9 1746.6,281.9 1757.8,299.5 "/>
<polygon class="st5" points="1737.1,266.9 1782.8,266.9 1782.8,248.6 1725.4,248.6 1725.5,248.8 "/>
<g>
	<line class="st14" x1="2404.8" y1="481.6" x2="2490" y2="392.4"/>
</g>
<g>
	<line class="st14" x1="1637.9" y1="480.8" x2="1548.7" y2="565.9"/>
</g>
<g>
	<line class="st14" x1="1707.4" y1="480.8" x2="1595.1" y2="588"/>
</g>
<g>
	<line class="st14" x1="1750.4" y1="480.8" x2="1689.1" y2="540"/>
</g>
<g>
	<line class="st14" x1="1820.2" y1="480.8" x2="1731" y2="565.9"/>
</g>
<g>
	<line class="st14" x1="2302.3" y1="335.1" x2="2370.1" y2="265"/>
</g>
<g>
	<line class="st14" x1="2301.8" y1="249.6" x2="2387" y2="160.4"/>
</g>
<g>
	<line class="st14" x1="1905.8" y1="249.6" x2="1991" y2="160.4"/>
</g>
<g>
	<line class="st14" x1="2032.3" y1="249.6" x2="2068.1" y2="214"/>
</g>
<g>
	<line class="st14" x1="1875.8" y1="249.6" x2="1934.1" y2="189"/>
</g>
</svg>
